<?xml version="1.0" standalone="no"?>
<!DOCTYPE svg PUBLIC "-//W3C//DTD SVG 20010904//EN"
 "http://www.w3.org/TR/2001/REC-SVG-20010904/DTD/svg10.dtd">
<svg version="1.0" xmlns="http://www.w3.org/2000/svg"
 width="500.000000pt" height="500.000000pt" viewBox="0 0 500.000000 500.000000"
 preserveAspectRatio="xMidYMid meet">
<metadata>
Created by potrace 1.14, written by Peter Selinger 2001-2017
</metadata>
<g transform="translate(0.000000,500.000000) scale(0.100000,-0.100000)"
fill="#000000" stroke="none">
<path d="M2390 4773 c-39 -6 -108 -32 -201 -78 -192 -96 -376 -233 -550 -412
-265 -272 -398 -513 -498 -899 -6 -23 -11 -58 -11 -78 0 -21 -5 -46 -11 -58
-8 -14 -7 -28 2 -50 11 -27 10 -32 -5 -44 -25 -18 -13 -49 38 -97 l41 -39 -39
16 c-45 19 -71 11 -52 -16 17 -23 113 -81 205 -124 41 -19 72 -37 69 -40 -3
-3 -63 14 -132 36 -70 23 -132 40 -138 38 -6 -2 19 -23 56 -47 36 -24 66 -45
66 -48 0 -2 -24 -1 -54 2 -67 8 -79 -6 -40 -46 26 -28 27 -30 9 -42 -14 -11
-16 -21 -11 -43 4 -16 11 -49 15 -74 12 -68 41 -174 51 -184 6 -6 -43 -38
-118 -79 -296 -163 -507 -337 -656 -542 -70 -96 -71 -98 -121 -200 -134 -276
-120 -562 38 -756 118 -145 488 -336 810 -418 61 -16 135 -32 162 -35 28 -3
77 -10 110 -15 77 -12 324 -11 440 1 114 11 322 63 407 101 21 10 42 17 48 17
5 0 20 11 32 25 13 15 28 23 38 20 60 -19 75 41 75 287 0 245 13 224 19 -32 3
-105 8 -195 11 -200 18 -29 25 17 26 163 1 155 2 160 15 117 8 -25 22 -83 31
-130 16 -87 32 -124 34 -80 1 14 2 41 4 60 2 19 4 46 5 60 1 21 6 16 27 -28
29 -61 52 -65 65 -14 7 26 13 32 26 27 31 -12 35 -10 56 21 12 17 36 37 54 43
17 7 32 16 32 21 0 11 100 110 112 110 5 0 49 -24 96 -53 332 -205 628 -305
922 -312 431 -11 722 178 785 508 14 71 14 336 1 450 -4 26 -8 66 -11 90 -9
86 -17 125 -51 251 -92 343 -259 635 -494 865 -47 46 -97 88 -112 93 -16 6
-28 16 -28 24 0 16 -31 34 -60 34 -13 0 -24 9 -31 26 -9 26 -12 26 -63 20 -30
-3 -63 -9 -73 -13 -10 -4 -3 6 15 21 38 33 44 61 10 51 -41 -12 -122 -57 -195
-108 -40 -28 -75 -48 -78 -45 -5 5 80 86 170 161 46 39 24 42 -45 7 -67 -34
-86 -33 -52 3 11 12 24 35 28 51 7 28 6 29 -22 23 -16 -3 -37 -9 -46 -12 -14
-6 -18 -2 -18 18 0 21 -6 26 -37 32 -20 4 -46 13 -57 21 -11 8 -28 14 -38 14
-9 0 -39 7 -65 16 -26 10 -59 18 -73 18 l-25 2 -1 180 c-1 197 -8 305 -29 426
-85 479 -336 830 -654 913 -57 14 -182 18 -261 8z m312 -47 c215 -87 388 -286
499 -574 77 -200 109 -389 114 -664 3 -222 0 -231 -69 -218 l-29 6 -4 149
c-10 472 -139 851 -372 1094 -128 134 -295 209 -470 212 -40 0 -43 2 -22 10
80 32 255 24 353 -15z m-207 -30 c73 -16 139 -44 202 -87 66 -46 202 -185 247
-254 61 -90 134 -255 170 -383 29 -102 43 -173 75 -382 3 -25 6 -103 6 -175
l0 -130 -37 -3 c-49 -4 -55 9 -63 143 -3 61 -8 121 -10 135 -2 14 -9 60 -15
102 -62 426 -282 806 -540 938 -91 46 -147 61 -241 62 -100 2 -104 14 -12 34
76 16 144 16 218 0z m-122 -61 c55 -11 138 -47 199 -88 235 -157 422 -502 478
-887 6 -41 13 -86 16 -100 2 -14 7 -78 11 -143 7 -130 4 -137 -47 -129 -34 5
-36 9 -50 127 -20 170 -26 204 -57 330 -66 268 -184 496 -337 651 -134 136
-277 202 -435 204 -36 0 -43 3 -33 13 31 30 154 41 255 22z m-42 -90 c335
-136 595 -615 635 -1171 l5 -72 -41 -4 c-23 -2 -43 -1 -45 2 -2 4 -11 53 -20
111 -50 317 -138 561 -280 769 -67 99 -111 147 -191 211 -93 74 -193 117 -286
125 -43 4 -78 9 -78 11 0 9 30 34 52 43 41 18 178 4 249 -25z m-111 -76 c279
-117 510 -477 603 -939 14 -69 28 -149 32 -177 l6 -53 -45 0 -45 0 -11 58
c-80 408 -225 715 -429 911 -99 95 -243 167 -338 170 -27 1 -29 17 -5 44 15
17 27 19 97 14 52 -3 100 -13 135 -28z m-272 1 c-7 -10 -14 -17 -17 -15 -4 4
18 35 25 35 2 0 -1 -9 -8 -20z m-55 -15 c-3 -9 -8 -14 -10 -11 -3 3 -2 9 2 15
9 16 15 13 8 -4z m207 -61 c72 -27 172 -98 247 -177 163 -172 287 -421 363
-727 43 -178 44 -187 20 -195 -12 -4 -32 -4 -44 -1 -20 5 -28 22 -56 122 -67
246 -134 403 -237 557 -134 203 -307 346 -446 372 -41 8 -43 14 -22 54 14 28
15 28 72 19 32 -4 78 -16 103 -24z m-205 -4 c-9 -16 -20 -30 -25 -30 -5 0 -1
13 8 30 22 39 37 39 17 0z m-45 1 c-5 -11 -15 -23 -22 -27 -7 -5 -8 -2 -3 7
21 37 44 55 25 20z m-50 -15 c0 -2 -8 -10 -17 -17 -16 -13 -17 -12 -4 4 13 16
21 21 21 13z m5 -65 c-15 -31 -35 -49 -35 -33 0 10 39 62 46 62 2 0 -2 -13
-11 -29z m44 0 c-6 -17 -17 -35 -25 -42 -13 -10 -13 -8 -4 17 10 27 28 54 36
54 1 0 -2 -13 -7 -29z m121 4 c179 -58 396 -290 516 -552 57 -125 150 -407
149 -453 0 -20 -68 -26 -82 -8 -6 7 -20 42 -31 78 -101 328 -274 618 -451 754
-61 47 -184 116 -207 116 -19 0 -18 5 8 51 12 22 27 38 33 36 5 -2 35 -12 65
-22z m-220 -25 c-6 -12 -14 -19 -17 -17 -2 3 1 15 7 27 6 12 14 19 17 17 2 -3
-1 -15 -7 -27z m-47 -5 c-3 -9 -8 -14 -10 -11 -3 3 -2 9 2 15 9 16 15 13 8 -4z
m53 -79 c-18 -43 -41 -51 -25 -9 11 31 30 56 36 49 2 -2 -3 -20 -11 -40z m-47
-4 c-6 -18 -15 -32 -20 -32 -12 0 -11 6 7 41 19 39 28 33 13 -9z m82 -14 c-21
-43 -21 -43 -16 -9 3 19 10 40 16 48 21 25 21 5 0 -39z m-126 11 c-9 -17 -19
-29 -21 -26 -8 7 15 57 26 57 6 0 4 -13 -5 -31z m260 2 c241 -114 454 -425
589 -858 9 -28 16 -54 16 -57 0 -3 -20 -6 -44 -6 l-44 0 -37 98 c-41 105 -131
290 -173 356 -106 164 -257 321 -365 377 -64 33 -64 33 -54 63 12 38 26 56 41
56 6 0 38 -13 71 -29z m-313 -23 c-7 -7 -12 -8 -12 -2 0 14 12 26 19 19 2 -3
-1 -11 -7 -17z m-19 -63 c-5 -22 -33 -57 -33 -41 0 9 29 66 34 66 2 0 1 -11
-1 -25z m47 8 c-1 -18 -22 -53 -33 -53 -3 0 0 16 6 35 11 37 27 47 27 18z m35
-20 c-19 -46 -25 -52 -25 -27 0 35 12 64 26 64 12 0 12 -6 -1 -37z m44 -5
c-10 -37 -29 -60 -29 -36 0 26 22 78 30 73 5 -3 4 -20 -1 -37z m31 -38 c-18
-34 -23 -16 -9 31 12 39 14 41 17 17 2 -15 -2 -37 -8 -48z m-204 48 c-12 -40
-17 -50 -22 -46 -5 6 13 58 20 58 3 0 4 -6 2 -12z m334 -31 c80 -46 235 -206
309 -317 71 -108 159 -281 195 -385 13 -38 27 -78 31 -87 6 -16 1 -18 -39 -18
-45 0 -48 2 -62 38 -115 282 -328 573 -497 679 -23 14 -45 30 -48 36 -4 5 0
30 8 54 17 50 17 50 103 0z m-315 -64 c-8 -45 -13 -55 -25 -48 -11 7 10 85 22
85 6 0 7 -15 3 -37z m34 -39 l-13 -29 -3 26 c-2 14 2 38 8 55 l13 29 3 -26 c2
-14 -2 -38 -8 -55z m-77 31 c-2 -14 -8 -28 -13 -31 -10 -6 -12 26 -3 50 9 24
22 10 16 -19z m124 -20 c-10 -53 -31 -58 -22 -5 4 24 10 48 13 54 11 17 16
-12 9 -49z m40 -9 c-7 -45 -26 -74 -26 -39 0 27 21 96 27 89 3 -3 2 -25 -1
-50z m-216 4 c-16 -31 -23 -19 -9 16 6 16 13 24 16 17 2 -7 -1 -22 -7 -33z
m246 -40 c-13 -43 -14 -43 -15 -13 -1 17 4 44 11 60 17 43 21 6 4 -47z m-283
35 c-3 -9 -8 -14 -10 -11 -3 3 -2 9 2 15 9 16 15 13 8 -4z m383 -17 c68 -45
198 -178 266 -274 59 -83 153 -252 200 -361 l27 -62 -36 -10 c-20 -6 -40 -8
-44 -6 -4 3 -30 49 -59 102 -113 211 -282 426 -400 508 -22 15 -40 35 -40 44
0 27 20 91 29 91 4 0 30 -14 57 -32z m-312 -61 c-8 -54 -24 -73 -24 -26 0 45
10 80 21 74 4 -3 6 -25 3 -48z m-42 -1 c-4 -35 -21 -60 -23 -34 -2 21 3 62 8
71 10 17 19 -4 15 -37z m84 2 c-2 -24 -5 -49 -5 -56 -1 -7 -5 -10 -11 -7 -13
8 -13 61 0 86 17 30 21 23 16 -23z m39 -34 c-5 -39 -9 -45 -17 -31 -13 23 0
103 14 89 6 -6 8 -29 3 -58z m-171 17 c-5 -22 -10 -29 -17 -22 -7 7 -7 19 2
37 15 34 23 26 15 -15z m212 -8 c-3 -21 -5 -46 -5 -56 -1 -10 -6 -15 -12 -12
-17 11 -2 105 17 105 2 0 3 -17 0 -37z m38 -25 c-8 -53 -23 -85 -23 -48 1 48
10 90 20 90 5 0 7 -17 3 -42z m-297 10 c-3 -8 -6 -5 -6 6 -1 11 2 17 5 13 3
-3 4 -12 1 -19z m324 -63 l-9 -40 -1 42 c-1 23 2 50 6 60 7 17 8 17 11 -2 1
-11 -1 -38 -7 -60z m169 -54 c36 -36 84 -88 106 -116 37 -46 134 -189 134
-198 0 -2 22 -44 50 -93 27 -49 50 -92 50 -96 0 -10 -68 -30 -80 -23 -5 3 -22
27 -37 53 -75 131 -191 288 -278 376 -99 99 -101 104 -89 179 l7 37 36 -26
c20 -15 65 -57 101 -93z m-449 82 c9 -61 -2 -103 -20 -74 -9 15 -1 81 10 81 5
0 10 -3 10 -7z m48 -43 c-1 -27 -6 -50 -10 -50 -5 0 -9 8 -10 18 -1 9 -2 32
-3 50 -1 20 3 32 11 32 9 0 12 -16 12 -50z m41 -18 c0 -34 -4 -52 -9 -46 -17
17 -18 119 -1 109 6 -3 10 -32 10 -63z m-130 41 c0 -10 -3 -29 -7 -42 -6 -22
-7 -23 -13 -6 -8 23 -1 65 11 65 5 0 9 -8 9 -17z m169 -55 c1 -35 -1 -60 -4
-56 -11 11 -18 118 -8 118 5 0 11 -28 12 -62z m41 -33 c-1 -33 -4 -45 -9 -35
-9 15 -14 57 -12 95 3 43 21 -10 21 -60z m-254 49 c-3 -9 -6 -18 -6 -20 0 -2
-4 -4 -9 -4 -5 0 -7 9 -4 20 3 11 10 20 15 20 6 0 7 -7 4 -16z m288 -47 c1
-26 -1 -52 -6 -59 -4 -8 -8 14 -8 51 0 73 9 78 14 8z m36 -32 c0 -30 -3 -55
-8 -55 -8 0 -14 88 -6 101 11 18 14 8 14 -46z m-279 8 c0 -16 2 -38 3 -51 2
-13 -2 -21 -8 -19 -13 4 -24 54 -18 80 7 27 22 20 23 -10z m49 -52 c0 -62 -19
-41 -26 30 -5 50 -4 53 10 35 9 -12 16 -39 16 -65z m257 17 c-2 -13 -4 -3 -4
22 0 25 2 35 4 23 2 -13 2 -33 0 -45z m-349 17 c1 -19 -3 -37 -8 -40 -6 -3
-10 -3 -11 2 0 4 -2 17 -5 28 -4 24 2 45 14 45 5 0 9 -16 10 -35z m134 -26
c10 -56 5 -83 -9 -49 -6 14 -13 42 -16 63 -7 55 16 42 25 -14z m330 -26 c42
-43 102 -112 133 -153 59 -77 165 -250 165 -269 0 -6 -9 -15 -19 -21 -39 -20
-58 -12 -92 42 -45 74 -141 198 -208 271 -66 70 -78 91 -76 127 4 71 6 80 13
80 4 0 42 -35 84 -77z m-507 35 c-2 -24 -25 -38 -25 -15 0 23 11 47 19 42 4
-2 7 -14 6 -27z m220 -43 c5 -46 3 -56 -5 -43 -16 26 -26 126 -11 113 6 -6 13
-38 16 -70z m41 -27 c3 -51 2 -57 -6 -33 -5 17 -12 50 -15 75 -4 34 -3 42 6
33 6 -6 13 -40 15 -75z m38 -28 c3 -33 2 -49 -4 -40 -11 19 -19 113 -9 103 4
-4 10 -33 13 -63z m31 -21 c4 -55 3 -58 -5 -24 -10 45 -13 101 -5 93 3 -3 7
-34 10 -69z m-321 44 c2 -10 7 -34 11 -53 l6 -35 -21 24 c-11 13 -20 36 -20
52 0 32 16 39 24 12z m44 -10 c17 -46 23 -83 13 -83 -8 0 -41 81 -41 102 0 19
18 6 28 -19z m62 -56 c6 -27 8 -52 5 -55 -7 -7 -32 57 -40 103 -6 37 -5 38 9
21 8 -10 20 -41 26 -69z m-150 49 c0 -13 3 -32 7 -42 4 -12 2 -15 -8 -12 -15
5 -28 46 -21 66 7 21 22 13 22 -12z m189 -33 c6 -21 12 -54 15 -73 l5 -35 -18
40 c-11 22 -22 55 -26 73 -9 46 12 41 24 -5z m208 1 c0 -24 -2 -32 -8 -23 -11
17 -12 59 -1 59 4 0 8 -16 9 -36z m-154 -61 c19 -72 20 -81 8 -67 -9 10 -41
114 -41 135 0 27 17 -8 33 -68z m400 -166 c34 -48 71 -103 82 -122 l20 -36
-25 -19 c-14 -11 -30 -20 -36 -20 -6 0 -26 21 -44 47 -19 26 -65 86 -103 133
-96 119 -103 135 -98 225 2 30 3 29 72 -45 38 -41 98 -114 132 -163z m-678
213 c3 -5 1 -10 -4 -10 -6 0 -11 5 -11 10 0 6 2 10 4 10 3 0 8 -4 11 -10z
m319 -80 c17 -73 14 -95 -5 -29 -22 81 -28 112 -19 103 5 -5 16 -38 24 -74z
m-244 -19 c12 -34 15 -51 7 -48 -16 5 -46 67 -47 97 0 35 17 14 40 -49z m278
-1 l0 -35 -8 30 c-4 17 -8 41 -8 55 -1 23 0 23 8 5 5 -11 8 -36 8 -55z m-335
15 c9 -25 12 -45 8 -45 -14 0 -28 23 -36 58 -10 48 11 39 28 -13z m115 -37
c12 -32 18 -58 13 -58 -11 0 -61 104 -61 127 0 30 24 -5 48 -69z m44 3 c23
-52 39 -101 33 -101 -7 0 -45 78 -61 122 -19 53 2 38 28 -21z m-202 12 c0 -7
-4 -13 -10 -13 -5 0 -10 12 -10 28 0 21 2 24 10 12 5 -8 10 -21 10 -27z m244
-21 c21 -40 55 -132 49 -132 -4 0 -73 146 -73 156 0 12 11 1 24 -24z m-204
-76 c33 -61 32 -88 0 -46 -29 38 -52 89 -45 101 9 13 9 13 45 -55z m280 -15
c32 -83 31 -87 -4 -16 -19 39 -35 77 -35 85 -1 20 17 -11 39 -69z m-205 -18
c25 -42 44 -77 41 -80 -5 -6 -79 92 -100 134 -14 28 -14 32 -1 27 8 -3 35 -40
60 -81z m-127 25 c13 -32 -2 -48 -17 -19 -13 23 -15 69 -3 56 5 -6 13 -22 20
-37z m565 -4 c52 -57 157 -196 157 -207 0 -14 -53 -58 -61 -50 -4 5 -37 44
-73 88 -52 63 -66 87 -67 115 -1 19 -2 50 -4 68 -1 17 -1 32 2 32 3 0 24 -21
46 -46z m-375 -42 c23 -37 52 -83 64 -101 42 -65 -1 -21 -55 57 -67 96 -83
124 -64 117 7 -3 32 -36 55 -73z m166 62 c3 -8 2 -12 -4 -9 -6 3 -10 10 -10
16 0 14 7 11 14 -7z m-76 -136 c23 -38 39 -68 37 -68 -6 0 -105 147 -112 168
-9 25 27 -23 75 -100z m1170 57 c-2 -2 -19 -7 -38 -10 -37 -6 -32 9 5 17 19 4
40 0 33 -7z m184 3 c-9 -9 -15 -9 -24 0 -9 9 -7 12 12 12 19 0 21 -3 12 -12z
m155 -14 c-9 -9 -28 6 -21 18 4 6 10 6 17 -1 6 -6 8 -13 4 -17z m90 20 c-3 -3
-12 -4 -19 -1 -8 3 -5 6 6 6 11 1 17 -2 13 -5z m-1868 -64 c24 -33 48 -60 54
-60 6 0 8 -3 5 -6 -12 -11 -90 48 -103 79 -11 26 -12 47 -2 47 2 0 22 -27 46
-60z m41 27 c32 -42 193 -204 245 -247 57 -47 22 -25 -55 34 -129 99 -266 246
-228 246 7 0 24 -15 38 -33z m1247 27 c-3 -3 -12 -4 -19 -1 -8 3 -5 6 6 6 11
1 17 -2 13 -5z m708 -4 c3 -5 1 -10 -4 -10 -6 0 -11 5 -11 10 0 6 2 10 4 10 3
0 8 -4 11 -10z m-765 -9 c-8 -5 -28 -11 -45 -15 -28 -6 -29 -5 -11 9 11 8 31
15 45 15 19 -1 22 -3 11 -9z m120 -7 c0 -2 -14 -11 -31 -20 -21 -10 -35 -12
-41 -6 -7 7 -1 15 18 25 24 13 54 13 54 1z m194 7 c3 -5 -7 -14 -24 -19 -30
-11 -47 -2 -35 18 8 12 52 13 59 1z m404 -4 c7 -5 10 -13 7 -18 -7 -10 -45 7
-45 20 0 11 19 9 38 -2z m-484 -22 c-3 -7 -19 -18 -36 -24 -39 -14 -38 -14
-38 4 0 9 15 22 32 30 36 15 50 12 42 -10z m266 15 c0 -5 -7 -10 -15 -10 -8 0
-15 5 -15 10 0 6 7 10 15 10 8 0 15 -4 15 -10z m474 -11 c-6 -11 -24 -2 -24
11 0 5 7 7 15 4 8 -4 12 -10 9 -15z m-2001 -114 c78 -88 50 -69 -55 38 -38 38
-68 73 -68 79 0 15 37 -20 123 -117z m1456 105 c10 -5 5 -10 -15 -17 -38 -13
-53 -7 -47 18 5 19 24 19 62 -1z m217 5 c18 -14 18 -14 -7 -15 -15 0 -32 7
-39 15 -10 12 -9 15 7 15 10 0 28 -7 39 -15z m234 5 c0 -5 -2 -10 -4 -10 -3 0
-8 5 -11 10 -3 6 -1 10 4 10 6 0 11 -4 11 -10z m-1795 -41 c22 -41 11 -36 -14
7 -12 19 -16 32 -11 29 6 -3 17 -19 25 -36z m700 32 c-14 -14 -73 -26 -60 -13
6 5 19 12 30 15 34 8 40 8 30 -2z m125 4 c0 -6 -57 -35 -70 -35 -18 0 -11 17
13 28 23 11 57 16 57 7z m110 -20 c-15 -18 -61 -28 -73 -16 -7 7 0 15 23 25
39 16 67 11 50 -9z m825 9 c13 -13 14 -19 4 -25 -16 -9 -26 -4 -39 22 -14 25
11 27 35 3z m75 6 c0 -5 -4 -10 -10 -10 -5 0 -10 5 -10 10 0 6 5 10 10 10 6 0
10 -4 10 -10z m-574 -11 c9 -15 -16 -37 -51 -45 -26 -5 -31 -2 -32 15 -2 28
68 54 83 30z m209 1 c-3 -5 -10 -10 -16 -10 -5 0 -9 5 -9 10 0 6 7 10 16 10 8
0 12 -4 9 -10z m-421 -8 c9 -15 -10 -32 -42 -38 -24 -5 -32 -3 -32 8 0 23 62
49 74 30z m636 -13 c0 -18 -2 -19 -15 -9 -8 7 -15 16 -15 21 0 5 7 9 15 9 9 0
15 -9 15 -21z m254 -2 c8 -14 8 -20 -4 -27 -22 -14 -28 -12 -40 10 -21 39 20
55 44 17z m71 14 c9 -16 -30 -32 -43 -19 -7 7 -12 16 -12 20 0 11 48 10 55 -1z
m-1301 -35 c-25 -19 -53 -26 -59 -15 -9 13 58 50 69 39 6 -6 3 -15 -10 -24z
m656 5 c0 -24 -6 -31 -31 -40 -36 -12 -49 -7 -49 18 0 16 16 26 78 50 1 1 2
-12 2 -28z m66 15 c18 -14 18 -15 -9 -25 -38 -15 -37 -15 -37 14 0 28 17 32
46 11z m81 8 c-3 -3 -12 -4 -19 -1 -8 3 -5 6 6 6 11 1 17 -2 13 -5z m361 -44
c-2 -8 -11 -16 -20 -18 -23 -4 -37 46 -17 59 16 10 41 -17 37 -41z m-1268 30
c0 -14 -38 -32 -58 -28 -13 3 -10 8 13 21 35 19 45 21 45 7z m235 1 c7 -12
-34 -41 -57 -41 -28 0 -21 25 10 37 36 14 40 15 47 4z m323 -26 c-2 -3 -20
-11 -40 -19 -29 -13 -37 -13 -41 -2 -8 20 6 36 39 45 21 6 31 4 37 -6 5 -8 7
-16 5 -18z m466 29 c15 -6 23 -34 10 -34 -13 0 -44 21 -44 30 0 11 11 13 34 4z
m-1365 -73 l52 -64 -28 -29 c-15 -15 -30 -28 -34 -28 -8 0 -26 45 -33 85 -12
64 -18 110 -13 105 3 -3 28 -34 56 -69z m672 28 c-28 -23 -61 -25 -61 -4 0 20
61 47 75 34 7 -7 2 -17 -14 -30z m1169 24 c0 -23 -29 -53 -52 -53 -15 0 -17 5
-12 28 10 39 12 42 40 42 16 0 24 -6 24 -17z m-533 -10 c3 -7 -3 -9 -16 -6
-12 3 -21 10 -21 15 0 13 32 6 37 -9z m216 3 c6 -16 -2 -28 -14 -20 -12 7 -11
34 0 34 5 0 11 -6 14 -14z m-2078 -56 c39 -34 109 -86 158 -117 48 -30 87 -57
87 -59 0 -8 -165 79 -210 109 -64 44 -120 97 -120 113 0 23 12 17 85 -46z
m2311 48 c-11 -51 -20 -68 -37 -68 -25 0 -27 55 -1 69 24 14 41 13 38 -1z
m-2054 -73 c7 -12 0 -9 -18 10 -45 45 -63 74 -25 40 18 -16 38 -39 43 -50z
m668 70 c0 -11 -46 -45 -62 -45 -27 0 -22 17 10 34 27 15 52 20 52 11z m110
-10 c0 -8 -14 -22 -31 -31 -26 -13 -33 -13 -40 -3 -5 9 1 19 19 31 33 22 52
23 52 3z m320 1 c0 -24 -47 -50 -69 -37 -15 10 -4 39 17 44 34 9 52 7 52 -7z
m200 -6 c0 -20 -33 -40 -66 -40 -20 0 -18 37 4 49 30 18 62 13 62 -9z m205 -9
c1 -18 -6 -27 -31 -37 -46 -19 -54 -18 -54 11 0 20 8 29 33 40 40 18 50 15 52
-14z m59 14 c19 -14 18 -15 -5 -24 -25 -9 -46 9 -34 29 8 13 16 12 39 -5z
m224 -12 c13 -20 13 -23 -1 -23 -8 0 -22 12 -32 26 -16 24 -16 26 0 22 10 -1
24 -13 33 -25z m-1238 7 c0 -8 -51 -40 -65 -40 -18 0 0 23 28 35 39 17 37 17
37 5z m344 -9 c8 -12 -13 -28 -47 -36 -21 -6 -27 -4 -27 8 0 27 61 50 74 28z
m821 -1 c-3 -5 -10 -10 -16 -10 -5 0 -9 5 -9 10 0 6 7 10 16 10 8 0 12 -4 9
-10z m265 -19 c0 -29 -21 -57 -33 -44 -9 8 -9 58 0 66 16 17 33 5 33 -22z
m214 -8 c-39 -53 -55 -68 -83 -83 l-23 -12 23 42 c27 47 72 90 96 90 12 0 8
-9 -13 -37z m-1190 12 c7 -19 -35 -48 -58 -39 -23 9 -20 21 12 38 34 19 39 19
46 1z m196 -5 c0 -12 -10 -25 -26 -32 -23 -11 -28 -10 -41 7 -13 18 -12 21 14
32 40 17 53 16 53 -7z m200 -9 c0 -23 -6 -31 -29 -39 -55 -19 -66 24 -12 53
37 20 41 19 41 -14z m280 9 c14 -10 22 -21 19 -24 -2 -3 -18 6 -34 19 -35 29
-22 33 15 5z m240 -21 c0 -20 -4 -29 -12 -27 -15 5 -22 33 -14 54 9 24 26 6
26 -27z m-2052 -30 c45 -33 82 -63 82 -65 0 -7 -15 2 -95 59 -83 59 -93 67
-79 67 6 0 48 -27 92 -61z m1882 40 c0 -5 -4 -9 -10 -9 -5 0 -10 7 -10 16 0 8
5 12 10 9 6 -3 10 -10 10 -16z m-1189 -21 c-24 -19 -61 -25 -61 -9 0 12 62 41
74 34 5 -4 -1 -14 -13 -25z m129 23 c0 -16 -51 -43 -68 -36 -15 5 -13 9 8 25
26 20 60 26 60 11z m101 -25 c-16 -19 -61 -27 -61 -11 0 16 64 48 68 34 2 -5
-1 -16 -7 -23z m810 21 c-1 -4 -1 -16 -1 -27 0 -21 -43 -45 -65 -36 -22 8 -5
54 24 65 28 10 43 10 42 -2z m273 -29 c8 -36 -11 -37 -24 -2 -10 27 -4 52 10
37 4 -4 10 -20 14 -35z m214 -9 c-23 -41 -45 -65 -53 -58 -9 10 35 88 52 92
10 3 19 5 21 6 2 0 -7 -17 -20 -40z m-1651 6 c-37 -33 -57 -32 -27 0 13 14 31
25 39 25 11 -1 8 -8 -12 -25z m473 10 c0 -16 -30 -35 -54 -35 -24 0 -19 29 7
40 33 13 47 12 47 -5z m198 -2 c-4 -22 -54 -41 -69 -26 -15 15 16 43 47 43 19
0 25 -5 22 -17z m197 7 c3 -5 1 -19 -5 -30 -15 -28 -70 -28 -70 0 0 30 60 55
75 30z m353 -7 c2 -8 -5 -13 -17 -13 -12 0 -21 6 -21 16 0 18 31 15 38 -3z
m-1058 -21 c0 -12 -61 -45 -68 -37 -9 9 47 57 59 50 5 -4 9 -9 9 -13z m110 5
c0 -11 -49 -47 -64 -47 -19 0 -1 30 27 44 39 19 37 19 37 3z m792 7 c20 -19
-27 -64 -67 -64 -20 0 -19 29 2 52 15 17 53 24 65 12z m282 -10 c9 -24 2 -26
-12 -4 -7 11 -8 20 -3 20 5 0 12 -7 15 -16z m228 -42 l-17 -47 -3 38 c-2 21 2
45 8 53 23 26 29 4 12 -44z m-1546 11 c-15 -12 -31 -23 -37 -23 -17 0 -9 18
17 39 36 29 55 14 20 -16z m554 22 c0 -18 -43 -37 -64 -29 -18 7 -10 31 12 37
35 9 52 7 52 -8z m190 -5 c0 -22 -34 -44 -56 -36 -22 8 -17 36 9 46 35 14 47
12 47 -10z m-392 -7 c-3 -16 -57 -38 -67 -27 -8 8 38 44 56 44 8 0 13 -7 11
-17z m877 7 c13 -21 -7 -59 -38 -69 -40 -14 -55 -1 -39 34 15 33 64 56 77 35z
m270 -33 c-10 -46 -25 -57 -25 -20 0 40 9 65 22 57 5 -3 6 -20 3 -37z m-567 6
c-2 -22 -10 -29 -35 -34 -34 -7 -43 2 -35 33 4 17 20 25 55 27 14 1 18 -5 15
-26z m787 -10 c-22 -20 -58 -53 -80 -73 -38 -34 -38 -34 -18 -5 38 54 103 110
133 114 3 1 -13 -16 -35 -36z m180 21 c-26 -20 -55 -36 -55 -30 0 5 63 46 70
46 3 -1 -4 -8 -15 -16z m-2605 -30 c0 -2 -13 2 -30 11 -16 9 -30 18 -30 21 0
2 14 -2 30 -11 17 -9 30 -18 30 -21z m600 11 c-7 -9 -23 -21 -34 -27 -15 -7
-12 -1 9 20 31 30 48 35 25 7z m567 9 c2 -7 -10 -17 -28 -23 -40 -14 -39 -14
-39 4 0 28 58 45 67 19z m191 -6 c-2 -18 -11 -24 -35 -26 -37 -4 -46 19 -15
37 31 19 54 13 50 -11z m799 -30 c-2 -13 -4 -5 -4 17 -1 22 1 32 4 23 2 -10 2
-28 0 -40z m-1297 32 c0 -14 -38 -32 -58 -28 -13 3 -10 8 13 21 35 19 45 21
45 7z m690 -20 c0 -14 -18 -29 -43 -35 -24 -6 -27 -4 -27 18 0 19 7 28 28 35
24 8 42 1 42 -18z m290 18 c0 -29 -26 -62 -51 -65 -52 -7 -48 51 5 66 43 13
46 13 46 -1z m140 -3 c0 -8 -4 -15 -9 -15 -5 0 -11 7 -15 15 -3 9 0 15 9 15 8
0 15 -7 15 -15z m-1255 -20 c-16 -14 -33 -25 -37 -25 -15 0 4 28 25 38 38 18
43 12 12 -13z m226 5 c-22 -19 -51 -27 -51 -14 0 12 35 33 55 33 19 0 19 -1
-4 -19z m1177 -16 c-3 -14 -5 -12 -10 9 -3 19 -2 25 4 19 6 -6 8 -18 6 -28z
m612 11 c-6 -7 -52 -27 -102 -45 -51 -17 -135 -54 -187 -82 -111 -59 -109 -52
4 19 104 65 158 92 225 114 58 18 78 16 60 -6z m-1668 0 c0 -5 -14 -15 -31
-22 -27 -11 -31 -11 -31 2 0 25 61 44 62 20z m194 4 c8 -14 -5 -26 -38 -34
-22 -6 -28 -4 -28 8 0 28 52 48 66 26z m-654 -31 c-12 -12 -25 -19 -28 -15 -4
4 3 16 16 27 30 26 40 16 12 -12z m846 4 c2 -14 -2 -22 -11 -22 -9 0 -22 -3
-31 -6 -25 -9 -33 26 -10 43 26 19 48 12 52 -15z m280 4 c5 -25 -17 -46 -49
-46 -24 0 -29 4 -29 24 0 17 8 27 28 34 34 13 46 10 50 -12z m593 7 c-6 -10
-22 -31 -36 -48 -23 -27 -25 -28 -14 -5 11 24 48 70 56 70 2 0 -1 -8 -6 -17z
m-319 2 c21 -8 10 -63 -13 -70 -10 -3 -28 -8 -40 -11 -18 -5 -20 -2 -15 27 7
44 35 66 68 54z m-1827 -50 c50 -25 79 -42 65 -39 -30 8 -179 83 -165 83 6 0
51 -20 100 -44z m585 40 c0 -6 -56 -35 -67 -35 -13 1 41 40 55 40 6 0 12 -2
12 -5z m96 -10 c-11 -8 -29 -15 -40 -15 -21 1 -21 1 -2 15 11 8 29 15 40 15
21 -1 21 -1 2 -15z m314 1 c0 -15 -45 -30 -60 -21 -5 3 -7 12 -3 20 7 19 63
20 63 1z m-198 -9 c-6 -7 -23 -13 -39 -15 -27 -1 -27 -1 -9 13 25 19 63 21 48
2z m386 -8 c4 -22 -57 -33 -65 -11 -3 8 0 18 8 23 21 13 53 6 57 -12z m272 -3
c0 -24 -16 -36 -50 -36 -14 0 -18 6 -15 22 9 42 65 55 65 14z m615 -12 c-8
-20 -15 -39 -15 -42 0 -3 -3 -3 -6 0 -6 7 22 78 31 78 3 0 -2 -16 -10 -36z
m-1605 16 c-8 -6 -24 -15 -35 -21 -16 -8 -15 -6 4 10 13 12 28 21 35 21 6 0 4
-5 -4 -10z m1272 -21 c-3 -21 -12 -33 -29 -40 -43 -16 -54 -12 -48 18 5 32 29
53 60 53 18 0 21 -5 17 -31z m903 20 c10 -15 5 -17 -55 -24 -30 -4 -58 -9 -62
-11 -4 -3 -8 -1 -8 5 0 29 110 55 125 30z m-2036 -13 c-2 -2 -18 -7 -34 -10
l-30 -6 30 14 c26 12 46 14 34 2z m97 -4 c-5 -9 -56 -23 -56 -16 0 6 55 32 59
29 1 -2 0 -8 -3 -13z m204 8 c0 -12 -45 -24 -60 -15 -5 3 -8 11 -5 16 8 12 65
12 65 -1z m188 -13 c3 -15 -2 -18 -29 -15 -36 3 -50 24 -22 31 30 8 48 3 51
-16z m274 -2 c3 -14 2 -25 -2 -25 -4 0 -22 -3 -39 -6 -28 -6 -31 -4 -31 19 0
25 8 30 56 36 7 0 14 -10 16 -24z m665 3 c-3 -8 -6 -5 -6 6 -1 11 2 17 5 13 3
-3 4 -12 1 -19z m217 -24 c-38 -26 -76 -51 -85 -58 -8 -6 2 5 24 25 22 21 56
46 76 57 64 36 57 23 -15 -24z m-2169 18 c-3 -3 -11 0 -18 7 -9 10 -8 11 6 5
10 -3 15 -9 12 -12z m395 -2 c-14 -11 -29 -20 -35 -20 -5 0 4 9 20 20 38 25
48 25 15 0z m1163 8 c7 -21 -10 -56 -32 -63 -28 -8 -41 1 -41 30 0 16 8 26 28
33 37 14 39 14 45 0z m832 1 c-11 -17 -184 -93 -193 -84 -3 2 28 20 69 38 41
18 85 38 99 44 32 15 32 15 25 2z m-1661 -8 c6 -9 -16 -21 -40 -21 -20 0 -17
18 4 23 28 8 31 7 36 -2z m199 -5 c6 -15 -12 -26 -44 -26 -24 0 -25 27 -1 33
31 8 40 7 45 -7z m265 -9 c4 -21 -37 -39 -55 -25 -19 15 -16 28 10 38 28 11
41 8 45 -13z m-1268 -56 c20 -9 13 -10 -35 -5 -62 7 -106 21 -140 47 -15 11 2
9 65 -8 47 -13 96 -28 110 -34z m610 55 c0 -2 -13 -9 -30 -15 -35 -12 -41 -5
-7 9 25 10 37 12 37 6z m96 -18 c-9 -5 -24 -7 -34 -5 -14 3 -12 6 8 14 29 12
50 5 26 -9z m214 8 c0 -16 -43 -27 -61 -16 -8 6 -6 11 7 19 27 15 54 14 54 -3z
m264 -1 c6 -17 -38 -40 -55 -29 -15 9 -10 32 9 37 32 9 40 7 46 -8z m351 -14
c0 -18 -7 -26 -27 -32 -31 -8 -38 -4 -38 27 0 24 14 34 45 31 14 -1 20 -9 20
-26z m374 -3 c19 -32 17 -34 -38 -47 l-43 -9 6 30 c12 63 48 75 75 26z m715
18 c-6 -15 -19 -19 -99 -32 -59 -9 -182 -42 -243 -64 -57 -21 -77 -25 -51 -10
40 23 180 74 263 96 109 28 138 30 130 10z m-1174 -21 c0 -22 -29 -45 -57 -45
-19 0 -24 4 -19 16 3 9 6 19 6 24 0 10 52 29 63 23 4 -2 7 -10 7 -18z m1266
10 c18 -13 16 -14 -23 -15 -40 0 -52 8 -36 23 11 12 38 8 59 -8z m-1910 -17
c-10 -5 -25 -6 -34 -2 -14 6 -13 8 8 14 31 9 48 0 26 -12z m292 5 c-4 -22 -58
-31 -58 -10 0 20 10 27 37 27 18 0 24 -5 21 -17z m722 7 c0 -6 -7 -24 -15 -40
-12 -23 -22 -30 -45 -30 -23 0 -30 4 -30 20 0 11 9 29 20 40 21 21 70 28 70
10z m-807 -14 c8 -19 -1 -26 -35 -26 -34 0 -37 17 -5 30 31 12 34 12 40 -4z
m347 -3 c0 -17 -24 -43 -40 -43 -26 0 -28 47 -2 52 18 4 42 -1 42 -9z m778 3
c-7 -8 -15 -12 -17 -11 -5 6 10 25 20 25 5 0 4 -6 -3 -14z m-1403 -6 c-3 -5
-21 -10 -38 -9 -31 1 -31 1 -7 9 36 11 52 11 45 0z m977 -21 c-5 -33 -20 -49
-47 -49 -42 0 -36 52 8 70 32 12 42 7 39 -21z m-1900 7 c42 -6 78 -22 78 -36
0 -6 -21 -10 -47 -10 -34 0 -57 7 -85 26 -45 32 -47 38 -10 30 15 -3 44 -8 64
-10z m1118 5 c0 -14 -34 -23 -54 -15 -14 5 -15 9 -4 15 18 12 58 11 58 0z
m345 -1 c10 -16 -15 -40 -41 -40 -17 0 -24 6 -24 19 0 28 51 44 65 21z m-648
-6 c-3 -3 -12 -4 -19 -1 -8 3 -5 6 6 6 11 1 17 -2 13 -5z m213 -4 c0 -6 -14
-10 -31 -10 -16 0 -28 3 -25 8 7 11 56 13 56 2z m343 1 c14 -2 7 -29 -9 -35
-21 -8 -20 -8 -39 10 -18 19 -5 34 24 29 9 -2 19 -4 24 -4z m437 -13 c0 -40
-16 -52 -62 -49 -26 2 -8 54 23 62 38 11 39 10 39 -13z m929 7 c-14 -8 -70
-23 -125 -34 -54 -12 -110 -23 -124 -26 l-25 -6 25 12 c33 16 230 68 255 68
17 0 16 -2 -6 -14z m181 6 c0 -19 -72 -27 -124 -14 -15 4 -16 7 -5 14 19 12
129 11 129 0z m-1980 -17 c0 -2 -15 -4 -32 -3 -27 0 -29 2 -13 8 18 8 45 4 45
-5z m360 -13 c0 -11 -59 -20 -66 -10 -2 4 3 14 12 23 12 12 20 13 35 6 10 -6
19 -15 19 -19z m-1094 9 c19 0 34 -4 34 -9 0 -15 -108 -7 -122 8 -11 11 -7 13
21 7 18 -3 49 -6 67 -6z m1008 -21 c-5 -9 -51 -5 -62 5 -3 3 6 10 19 15 25 9
53 -4 43 -20z m506 14 c-1 -41 -44 -61 -64 -30 -9 15 -7 21 8 33 27 20 56 18
56 -3z m1259 3 c10 -12 8 -13 -9 -9 -25 7 -37 23 -17 23 8 0 20 -6 26 -14z
m-1853 -9 c10 -10 -24 -20 -43 -13 -14 6 -15 9 -4 15 15 10 37 9 47 -2z m502
-15 c-2 -22 -8 -27 -32 -27 -53 0 -40 48 15 52 16 2 20 -3 17 -25z m505 7 c11
-42 -3 -54 -80 -68 -55 -11 -66 -3 -52 36 8 24 19 34 47 41 60 16 79 14 85 -9z
m-1101 -1 c-8 -8 -17 -8 -34 0 -22 10 -21 11 12 11 26 1 31 -2 22 -11z m1845
-2 c13 -12 -7 -18 -79 -20 -92 -4 -117 4 -63 20 41 12 130 12 142 0z m-2331
-32 c22 -53 29 -94 15 -94 -13 0 -75 63 -92 93 -8 14 -5 19 13 27 39 15 48 11
64 -26z m998 21 c8 -22 -42 -45 -54 -25 -4 7 -6 19 -3 27 7 18 49 17 57 -2z
m-1294 -5 c-32 -10 -89 -12 -73 -2 6 4 31 8 55 9 35 1 38 0 18 -7z m1218 -13
c3 -15 -2 -18 -30 -15 -22 2 -34 9 -36 21 -3 15 2 18 30 15 22 -2 34 -9 36
-21z m512 5 c0 -28 -25 -55 -54 -59 -27 -4 -31 4 -20 44 9 33 74 46 74 15z
m993 12 c22 -4 37 -12 37 -20 0 -10 -8 -13 -25 -9 -14 3 -36 7 -50 10 -14 3
-25 10 -25 15 0 12 11 12 63 4z m-2969 -39 c7 -19 -50 -31 -69 -15 -18 15 -19
37 -2 43 18 6 65 -12 71 -28z m124 26 c10 -6 8 -10 -10 -14 -38 -11 -73 -8
-94 8 -17 13 -15 14 36 15 30 0 61 -4 68 -9z m822 -1 c12 -8 11 -10 -7 -10
-13 0 -23 5 -23 10 0 13 11 13 30 0z m107 -17 c-3 -3 -21 -2 -39 2 -28 7 -30
9 -13 15 20 7 62 -7 52 -17z m83 6 c0 -5 -13 -9 -30 -9 -32 0 -41 16 -12 22
21 5 42 -1 42 -13z m78 3 c2 -7 -7 -12 -22 -12 -24 0 -41 12 -31 22 9 9 49 1
53 -10z m82 3 c0 -16 -45 -21 -54 -6 -8 12 4 21 31 21 14 0 23 -6 23 -15z m80
0 c0 -9 -9 -15 -24 -15 -13 0 -26 7 -30 15 -4 11 2 15 24 15 20 0 30 -5 30
-15z m1201 -1 c-25 -8 -61 -16 -80 -19 -23 -3 -14 2 24 14 33 10 69 19 80 19
11 0 0 -6 -24 -14z m-2112 -41 c23 -27 41 -53 41 -60 0 -6 -14 -15 -32 -18
-28 -7 -35 -3 -69 36 l-38 44 21 22 c12 13 25 23 29 23 4 0 26 -21 48 -47z
m1411 18 c0 -21 -6 -30 -22 -35 -36 -9 -48 -7 -48 10 0 29 21 54 45 54 21 0
25 -5 25 -29z m-1640 9 c-8 -5 -19 -10 -25 -10 -5 0 -3 5 5 10 8 5 20 10 25
10 6 0 3 -5 -5 -10z m1552 -15 c-3 -18 -11 -25 -28 -25 -12 0 -26 5 -29 10
-13 20 4 40 33 40 26 0 29 -3 24 -25z m1038 11 c-5 -5 -63 -11 -127 -13 -123
-3 -136 1 -44 14 84 12 184 12 171 -1z m221 -3 c13 -16 12 -17 -3 -4 -17 13
-22 21 -14 21 2 0 10 -8 17 -17z m-1351 -8 c0 -5 -10 -10 -23 -11 -28 -1 -39
5 -31 17 8 13 55 7 54 -6z m1281 -1 c33 -20 -53 -26 -111 -8 -13 5 -13 6 0 15
15 10 92 5 111 -7z m-2811 -3 c0 -12 -63 -23 -86 -14 -17 6 -16 8 6 14 37 10
80 10 80 0z m1443 2 c-7 -2 -21 -2 -30 0 -10 3 -4 5 12 5 17 0 24 -2 18 -5z
m-1553 -38 c0 -26 -60 -34 -80 -10 -10 12 -7 15 17 20 15 4 33 8 38 10 15 4
25 -4 25 -20z m1090 21 c0 -9 -39 -13 -51 -5 -10 6 -4 9 19 9 17 0 32 -2 32
-4z m80 -6 c0 -5 -11 -10 -25 -10 -14 0 -25 5 -25 10 0 6 11 10 25 10 14 0 25
-4 25 -10z m80 0 c0 -5 -14 -10 -31 -10 -17 0 -28 4 -24 10 3 6 17 10 31 10
13 0 24 -4 24 -10z m80 0 c0 -5 -13 -10 -30 -10 -16 0 -30 5 -30 10 0 6 14 10
30 10 17 0 30 -4 30 -10z m75 0 c4 -6 -7 -10 -24 -10 -17 0 -31 5 -31 10 0 6
11 10 24 10 14 0 28 -4 31 -10z m71 -3 c4 -4 -5 -7 -19 -7 -15 0 -27 4 -27 10
0 11 35 8 46 -3z m74 -3 c0 -2 -9 -4 -20 -4 -11 0 -20 4 -20 9 0 5 9 7 20 4
11 -3 20 -7 20 -9z m514 8 c2 -4 -2 -22 -10 -40 -10 -24 -18 -32 -31 -28 -10
2 -37 10 -61 16 -26 7 -42 16 -39 23 6 21 130 47 141 29z m937 -8 c17 -8 28
-18 26 -21 -9 -9 -78 18 -72 28 8 12 11 12 46 -7z m-2865 -3 c-8 -12 -66 -32
-66 -22 0 9 39 29 58 30 7 1 11 -3 8 -8z m781 3 c-3 -3 -12 -4 -19 -1 -8 3 -5
6 6 6 11 1 17 -2 13 -5z m713 -10 c0 -2 -9 -4 -20 -4 -11 0 -20 4 -20 9 0 5 9
7 20 4 11 -3 20 -7 20 -9z m1040 7 c-19 -4 -73 -8 -119 -10 -47 -1 -89 -5 -95
-8 -8 -4 -8 -2 -1 5 13 13 58 19 165 19 56 0 73 -2 50 -6z m215 -7 c25 -10 7
-22 -27 -18 -88 9 -118 16 -112 26 6 10 107 4 139 -8z m-2556 -28 c32 -33 32
-33 9 -40 -64 -17 -87 -1 -69 47 13 35 20 34 60 -7z m687 21 c11 -11 -29 -8
-46 3 -12 8 -9 10 12 7 15 -1 30 -6 34 -10z m884 -3 c0 -2 -12 -4 -27 -4 -21
0 -24 3 -14 9 13 8 41 5 41 -5z m-1760 -24 c-14 -10 -27 -16 -30 -13 -6 6 30
33 44 33 6 0 0 -9 -14 -20z m1110 0 c0 -12 -26 -19 -40 -10 -18 11 -3 29 20
23 11 -3 20 -9 20 -13z m1380 16 c0 -7 -61 -13 -65 -6 -2 3 12 7 31 8 19 2 34
1 34 -2z m375 -19 c20 -11 20 -12 -2 -15 -21 -3 -83 22 -83 34 0 8 61 -6 85
-19z m-3096 4 c17 -11 7 -45 -12 -39 -13 5 -23 48 -10 48 4 0 14 -4 22 -9z
m141 0 c0 -12 -40 -41 -57 -41 -22 0 -14 30 10 40 30 12 47 12 47 1z m140 6
c0 -2 -12 -14 -27 -28 l-28 -24 24 28 c23 25 31 32 31 24z m980 -7 c12 -8 11
-10 -7 -10 -12 0 -25 5 -28 10 -8 13 15 13 35 0z m150 0 c-20 -13 -53 -13 -45
0 3 6 18 10 33 10 21 0 24 -2 12 -10z m78 5 c-10 -11 -48 -14 -48 -4 0 5 12 9
27 9 14 0 24 -2 21 -5z m65 -2 c-7 -2 -21 -2 -30 0 -10 3 -4 5 12 5 17 0 24
-2 18 -5z m222 -3 c3 -6 -1 -7 -9 -4 -18 7 -21 14 -7 14 6 0 13 -4 16 -10z
m1160 -11 c7 -8 -11 -9 -64 -4 -109 10 -135 27 -31 20 46 -3 89 -10 95 -16z
m-1821 3 c3 -5 -1 -9 -9 -9 -8 0 -15 4 -15 9 0 4 4 8 9 8 6 0 12 -4 15 -8z
m-494 -23 c0 -6 -4 -7 -10 -4 -5 3 -10 11 -10 16 0 6 5 7 10 4 6 -3 10 -11 10
-16z m565 11 c3 -6 -4 -10 -17 -10 -18 0 -20 2 -8 10 19 12 18 12 25 0z m451
-3 c4 -4 -5 -7 -20 -7 -15 0 -25 4 -22 9 7 10 31 9 42 -2z m84 -3 c0 -2 -12
-4 -26 -4 -14 0 -23 4 -20 9 6 8 46 4 46 -5z m-1566 -35 c-12 -14 -21 -16 -28
-9 -8 8 -4 17 14 30 30 22 40 7 14 -21z m426 21 c24 -24 25 -36 4 -44 -26 -10
-39 -7 -62 14 -34 32 -31 37 31 49 4 0 16 -8 27 -19z m980 10 c0 -5 -12 -10
-26 -10 -14 0 -23 4 -19 10 3 6 15 10 26 10 10 0 19 -4 19 -10z m1489 -1 c44
-15 43 -41 -1 -27 -18 5 -43 12 -55 15 -13 3 -23 9 -23 14 0 12 41 11 79 -2z
m126 -19 c3 -6 3 -10 -2 -10 -11 1 -43 26 -43 34 0 9 37 -11 45 -24z m-1831
-1 c-7 -11 -41 -12 -48 0 -9 13 2 19 29 13 14 -2 22 -8 19 -13z m1526 11 c21
-7 17 -8 -20 -8 -25 -1 -63 3 -85 7 -38 8 -37 9 20 9 33 0 71 -4 85 -8z
m-2813 -16 c3 -8 -1 -22 -9 -30 -13 -13 -16 -13 -28 0 -10 13 -10 19 0 31 16
19 29 19 37 -1z m1208 6 c-3 -5 -12 -7 -20 -3 -21 7 -19 13 6 13 11 0 18 -4
14 -10z m125 6 c0 -3 -4 -8 -10 -11 -5 -3 -10 -1 -10 4 0 6 5 11 10 11 6 0 10
-2 10 -4z m-901 -28 c24 -25 13 -48 -24 -48 -30 0 -72 49 -53 62 23 14 57 8
77 -14z m2295 7 c67 -9 55 -18 -14 -11 -36 4 -69 12 -75 17 -7 7 0 8 20 5 17
-2 48 -7 69 -11z m212 -1 c30 -8 54 -20 54 -25 0 -12 -4 -12 -72 7 -32 9 -55
20 -52 25 7 12 7 12 70 -7z m-2796 -13 c-12 -23 -29 -35 -37 -27 -7 7 26 46
39 46 5 0 4 -9 -2 -19z m995 9 c3 -5 -3 -10 -14 -10 -12 0 -21 5 -21 10 0 6 6
10 14 10 8 0 18 -4 21 -10z m295 1 c0 -10 -42 -23 -49 -15 -7 6 20 24 37 24 6
0 12 -4 12 -9z m61 0 c-8 -5 -20 -7 -28 -4 -21 8 -15 13 15 13 20 0 23 -3 13
-9z m1608 -12 c18 -11 31 -22 28 -25 -6 -7 -77 28 -77 38 0 13 12 10 49 -13z
m-2029 -9 c0 -10 -38 -1 -45 10 -2 4 7 5 20 2 14 -2 25 -8 25 -12z m287 14
c-3 -3 -12 -4 -19 -1 -8 3 -5 6 6 6 11 1 17 -2 13 -5z m268 -4 c-3 -5 -12 -10
-18 -10 -7 0 -6 4 3 10 19 12 23 12 15 0z m-1578 -16 c3 -8 -2 -23 -11 -32
-14 -15 -18 -15 -26 -3 -10 16 4 51 21 51 5 0 12 -7 16 -16z m289 -11 l27 -27
-24 -9 c-33 -14 -51 -10 -72 15 -13 16 -15 24 -6 34 18 21 45 17 75 -13z m654
17 c8 -5 11 -10 5 -10 -5 0 -17 5 -25 10 -8 5 -10 10 -5 10 6 0 17 -5 25 -10z
m292 -18 c-19 -6 -44 6 -37 18 4 7 14 6 28 -2 14 -7 17 -13 9 -16z m273 18 c3
-6 -4 -10 -17 -10 -18 0 -20 2 -8 10 19 12 18 12 25 0z m1089 1 c3 -4 -6 -6
-19 -3 -14 2 -25 6 -25 8 0 8 39 4 44 -5z m258 -12 c31 -8 63 -29 43 -29 -23
0 -135 34 -135 41 0 9 14 7 92 -12z m-1692 1 c0 -5 -2 -10 -4 -10 -3 0 -8 5
-11 10 -3 6 -1 10 4 10 6 0 11 -4 11 -10z m1477 4 c-3 -3 -12 -4 -19 -1 -8 3
-5 6 6 6 11 1 17 -2 13 -5z m-2105 -28 c16 -22 16 -24 -7 -34 -21 -10 -28 -8
-45 10 -21 23 -24 31 -13 41 14 15 49 5 65 -17z m563 4 c-3 -5 -13 -6 -21 -3
-12 4 -13 8 -3 14 15 9 32 2 24 -11z m1930 6 c19 -8 35 -20 35 -27 0 -7 -7 -8
-17 -4 -10 4 -30 12 -45 17 -16 5 -28 14 -28 19 0 13 15 11 55 -5z m-3115 -22
c0 -8 -4 -12 -10 -9 -5 3 -10 13 -10 21 0 8 5 12 10 9 6 -3 10 -13 10 -21z
m236 0 c-4 -9 -9 -15 -11 -12 -3 3 -3 13 1 22 4 9 9 15 11 12 3 -3 3 -13 -1
-22z m1164 17 c0 -13 -25 -20 -40 -11 -10 6 -8 9 6 13 31 8 34 7 34 -2z m60 5
c0 -9 -30 -14 -35 -6 -4 6 3 10 14 10 12 0 21 -2 21 -4z m921 -16 c65 -21 122
-48 104 -50 -5 -1 -21 -3 -35 -4 -14 -2 -50 -6 -81 -10 -53 -8 -56 -7 -62 16
-10 34 -8 68 2 68 5 0 37 -9 72 -20z m306 14 c-3 -3 -12 -4 -19 -1 -8 3 -5 6
6 6 11 1 17 -2 13 -5z m234 -23 c21 -8 21 -10 4 -10 -27 -1 -93 18 -100 28 -5
10 56 -2 96 -18z m-2391 -3 c26 -28 25 -36 -5 -44 -25 -6 -75 17 -75 35 0 7
36 29 52 30 4 1 16 -9 28 -21z m591 5 c13 -15 12 -15 -8 -4 -24 12 -29 21 -14
21 5 0 15 -7 22 -17z m1169 -51 c0 -8 -5 -12 -12 -10 -7 3 -13 22 -15 44 l-2
39 14 -30 c8 -16 14 -36 15 -43z m931 51 c13 -15 12 -15 -8 -4 -24 12 -29 21
-14 21 5 0 15 -7 22 -17z m-1696 -3 c-3 -5 -15 -10 -26 -10 -11 0 -17 5 -14
10 3 6 15 10 26 10 11 0 17 -4 14 -10z m675 -43 c0 -30 -3 -38 -10 -27 -11 18
-10 81 2 74 4 -3 8 -24 8 -47z m43 -10 c-10 -16 -23 6 -22 36 l1 32 13 -30 c7
-16 11 -33 8 -38z m579 45 c32 -10 60 -21 63 -24 10 -9 -72 10 -108 26 -45 20
-22 19 45 -2z m271 -9 c16 -8 26 -17 23 -20 -8 -8 -96 27 -96 39 0 11 30 3 73
-19z m-1781 5 c-9 -9 -15 -9 -24 0 -9 9 -7 12 12 12 19 0 21 -3 12 -12z
m-1277 -8 c3 -5 1 -10 -4 -10 -6 0 -11 5 -11 10 0 6 2 10 4 10 3 0 8 -4 11
-10z m89 -5 c-6 -16 -24 -21 -24 -7 0 11 11 22 21 22 5 0 6 -7 3 -15z m171 6
c3 -5 1 -12 -5 -16 -5 -3 -10 1 -10 9 0 18 6 21 15 7z m165 -48 c0 -7 -4 -13
-9 -13 -5 0 -16 -2 -24 -6 -8 -3 -29 7 -47 22 l-33 28 34 12 c30 10 37 9 57
-9 12 -11 22 -26 22 -34z m740 47 c0 -5 -8 -10 -17 -10 -15 0 -16 2 -3 10 19
12 20 12 20 0z m385 0 c-28 -12 -37 -12 -30 0 3 6 16 10 28 9 21 0 21 -1 2 -9z
m1645 -32 c0 -5 -13 -1 -29 8 -17 10 -28 21 -25 26 6 9 54 -20 54 -34z m-3060
20 c0 -7 -3 -23 -6 -36 -5 -17 -9 -20 -20 -11 -10 8 -10 16 -2 35 12 26 28 32
28 12z m815 -6 c-3 -3 -11 0 -18 7 -9 10 -8 11 6 5 10 -3 15 -9 12 -12z m405
9 c0 -12 -28 -22 -34 -12 -3 5 -3 11 1 15 9 9 33 7 33 -3z m767 -28 c-3 -10
-5 -4 -5 12 0 17 2 24 5 18 2 -7 2 -21 0 -30z m691 1 c4 -4 -2 -4 -13 0 -11 4
-32 10 -48 13 -15 3 -30 9 -33 14 -6 10 85 -16 94 -27z m215 6 c48 -23 29 -31
-25 -10 -29 11 -54 20 -55 20 -2 0 -3 4 -3 9 0 10 38 1 83 -19z m-2415 8 c14
-14 16 -44 3 -53 -6 -3 -19 4 -30 16 -16 17 -18 26 -10 36 14 16 22 16 37 1z
m487 2 c3 -5 1 -10 -4 -10 -6 0 -11 5 -11 10 0 6 2 10 4 10 3 0 8 -4 11 -10z
m112 4 c-3 -3 -12 -4 -19 -1 -8 3 -5 6 6 6 11 1 17 -2 13 -5z m213 -13 c0 -5
-10 -11 -22 -14 -22 -6 -22 -6 -4 8 23 17 26 18 26 6z m47 3 c-3 -3 -12 -4
-19 -1 -8 3 -5 6 6 6 11 1 17 -2 13 -5z m-1305 -26 c-7 -7 -12 -8 -12 -2 0 6
3 14 7 17 3 4 9 5 12 2 2 -3 -1 -11 -7 -17z m148 2 c25 -22 22 -45 -8 -52 -12
-4 -31 4 -51 21 l-32 27 23 12 c33 15 42 14 68 -8z m965 10 c3 -5 -1 -10 -9
-10 -9 0 -16 5 -16 10 0 6 4 10 9 10 6 0 13 -4 16 -10z m245 0 c0 -5 -5 -10
-11 -10 -5 0 -7 5 -4 10 3 6 8 10 11 10 2 0 4 -4 4 -10z m1046 -26 c68 -32 63
-36 -66 -58 -111 -18 -191 -23 -208 -12 -16 10 -15 65 1 72 32 12 165 32 190
28 15 -2 53 -16 83 -30z m174 26 c8 -5 11 -10 5 -10 -5 0 -17 5 -25 10 -8 5
-10 10 -5 10 6 0 17 -5 25 -10z m236 -17 c26 -11 33 -18 22 -20 -9 -2 -38 8
-65 22 -53 28 -24 28 43 -2z m174 12 c26 -14 41 -35 24 -35 -12 0 -64 34 -64
42 0 11 7 10 40 -7z m-3103 -6 c6 -6 8 -19 6 -30 -4 -15 -8 -17 -19 -8 -15 12
-19 49 -6 49 4 0 13 -5 19 -11z m507 -11 c18 -25 7 -38 -31 -38 -28 0 -52 38
-32 51 24 15 47 10 63 -13z m466 2 c8 -5 11 -10 5 -10 -5 0 -17 5 -25 10 -8 5
-10 10 -5 10 6 0 17 -5 25 -10z m150 6 c0 -3 -4 -8 -10 -11 -5 -3 -10 -1 -10
4 0 6 5 11 10 11 6 0 10 -2 10 -4z m162 -18 c-6 -6 -15 -8 -19 -4 -4 4 -1 11
7 16 19 12 27 3 12 -12z m145 16 c-3 -3 -12 -4 -19 -1 -8 3 -5 6 6 6 11 1 17
-2 13 -5z m1768 -23 c-6 -5 -25 10 -25 20 0 5 6 4 14 -3 8 -7 12 -15 11 -17z
m-3279 -23 l12 -36 -113 -67 c-294 -174 -548 -418 -678 -652 -53 -94 -104
-236 -115 -318 -9 -68 -8 -219 2 -260 10 -43 38 -111 63 -155 l26 -45 -32 29
c-46 44 -106 142 -132 216 -30 86 -32 271 -4 370 80 282 313 569 642 791 102
69 285 170 302 167 8 -2 20 -19 27 -40z m1009 24 c-3 -3 -11 0 -18 7 -9 10 -8
11 6 5 10 -3 15 -9 12 -12z m560 8 c-3 -5 -12 -10 -18 -10 -7 0 -6 4 3 10 19
12 23 12 15 0z m680 -31 c8 -34 -10 -64 -24 -41 -4 7 -6 23 -5 35 1 12 3 28 3
35 2 23 19 3 26 -29z m45 -4 c0 -35 -19 -60 -21 -28 0 10 -3 30 -5 45 -4 22
-1 26 11 22 9 -4 15 -19 15 -39z m683 18 c16 -8 27 -17 24 -19 -5 -6 -97 33
-97 41 0 8 36 -3 73 -22z m211 -13 c5 -5 7 -12 3 -16 -7 -7 -87 36 -87 48 0 9
69 -18 84 -32z m-2957 5 c-2 -14 -6 -25 -10 -25 -9 0 -9 9 -3 33 7 26 17 20
13 -8z m277 0 c16 -25 16 -26 -10 -35 -23 -9 -31 -7 -51 12 -22 21 -23 23 -7
35 27 20 50 16 68 -12z m936 16 c0 -13 -28 -22 -35 -11 -3 4 1 11 7 13 20 8
28 8 28 -2z m175 -1 c-3 -5 -12 -10 -18 -10 -7 0 -6 4 3 10 19 12 23 12 15 0z
m535 -30 c0 -22 -5 -40 -10 -40 -6 0 -9 12 -6 28 2 15 5 33 5 40 1 6 3 12 6
12 3 0 5 -18 5 -40z m47 -12 c-2 -13 -8 -23 -13 -23 -12 0 -18 41 -9 63 6 16
7 16 16 0 5 -9 8 -27 6 -40z m748 5 c11 -7 17 -13 13 -13 -11 0 -118 50 -118
55 0 7 80 -25 105 -42z m-2755 27 c0 -5 -2 -10 -4 -10 -3 0 -8 5 -11 10 -3 6
-1 10 4 10 6 0 11 -4 11 -10z m741 -7 c13 -16 12 -17 -3 -4 -10 7 -18 15 -18
17 0 8 8 3 21 -13z m379 1 c0 -2 -7 -4 -15 -4 -8 0 -15 4 -15 10 0 5 7 7 15 4
8 -4 15 -8 15 -10z m766 -20 c-4 -14 -9 -24 -12 -21 -3 2 -2 17 2 31 3 15 9
25 11 22 3 -3 2 -17 -1 -32z m35 -4 c-4 -22 -9 -29 -13 -20 -5 15 9 67 16 59
3 -2 1 -20 -3 -39z m-1840 14 c10 -13 10 -17 -2 -24 -13 -9 -26 6 -28 33 -2
12 16 8 30 -9z m408 -3 c6 -10 7 -21 4 -25 -9 -8 -33 14 -33 30 0 20 18 17 29
-5z m31 -1 c6 -11 8 -20 6 -20 -3 0 -10 9 -16 20 -6 11 -8 20 -6 20 3 0 10 -9
16 -20z m405 10 c3 -5 1 -10 -4 -10 -6 0 -11 5 -11 10 0 6 2 10 4 10 3 0 8 -4
11 -10z m371 -5 c-21 -16 -32 -13 -21 4 3 6 14 11 23 11 15 -1 15 -2 -2 -15z
m1674 -37 c0 -12 -9 -10 -51 14 -21 11 -36 25 -33 30 6 9 84 -32 84 -44z m106
38 c10 -8 15 -18 11 -22 -4 -4 -17 2 -29 14 -25 25 -13 30 18 8z m-3139 -33
c-3 -3 -11 -2 -17 2 -8 5 -7 11 2 22 12 15 13 14 16 -1 2 -10 1 -20 -1 -23z
m313 -13 c0 -4 -12 -12 -26 -19 -23 -10 -30 -9 -50 10 -30 28 -30 37 -2 48 17
6 30 3 50 -12 16 -12 28 -24 28 -27z m626 23 c-7 -7 -26 7 -26 19 0 6 6 6 15
-2 9 -7 13 -15 11 -17z m494 22 c0 -2 -10 -10 -22 -16 -21 -11 -22 -11 -9 4
13 16 31 23 31 12z m1316 -16 c8 -14 -10 -11 -32 6 -18 13 -18 14 4 8 12 -3
25 -9 28 -14z m-2242 -11 c19 -27 7 -43 -27 -34 -29 7 -44 36 -25 48 21 13 36
9 52 -14z m241 12 c3 -5 2 -10 -4 -10 -5 0 -13 5 -16 10 -3 6 -2 10 4 10 5 0
13 -4 16 -10z m485 0 c0 -5 -4 -10 -10 -10 -5 0 -10 5 -10 10 0 6 5 10 10 10
6 0 10 -4 10 -10z m1455 -8 c-3 -3 -11 0 -18 7 -9 10 -8 11 6 5 10 -3 15 -9
12 -12z m-2642 -38 c-10 -25 -23 -15 -23 19 1 30 2 31 15 14 7 -11 11 -25 8
-33z m2591 12 l59 -34 -42 -12 c-95 -25 -245 -46 -403 -55 l-58 -3 0 44 c0 35
4 44 18 46 9 0 28 2 42 3 49 4 196 26 230 34 63 16 94 11 154 -23z m329 7 c23
-14 37 -28 30 -30 -10 -4 -93 44 -93 53 0 10 25 1 63 -23z m-2289 1 c3 -8 2
-12 -4 -9 -6 3 -10 10 -10 16 0 14 7 11 14 -7z m616 12 c0 -3 -4 -8 -10 -11
-5 -3 -10 -1 -10 4 0 6 5 11 10 11 6 0 10 -2 10 -4z m1840 -21 c30 -32 14 -32
-25 0 -20 16 -25 24 -14 25 8 0 26 -11 39 -25z m-3190 -1 c0 -8 -4 -12 -10 -9
-5 3 -10 10 -10 16 0 5 5 9 10 9 6 0 10 -7 10 -16z m267 -17 c12 -11 20 -24
17 -28 -10 -17 -61 -9 -80 12 -18 20 -18 21 0 35 20 14 29 12 63 -19z m226 8
c17 -23 17 -25 -2 -35 -26 -14 -27 -13 -51 12 -20 21 -20 23 -4 35 25 18 37
16 57 -12z m744 19 c-3 -3 -12 -4 -19 -1 -8 3 -5 6 6 6 11 1 17 -2 13 -5z
m173 2 c0 -3 -4 -8 -10 -11 -5 -3 -10 -1 -10 4 0 6 5 11 10 11 6 0 10 -2 10
-4z m1615 -56 c4 -6 -1 -7 -12 -3 -24 9 -93 52 -93 58 0 8 98 -43 105 -55z
m-2345 19 c6 -10 7 -19 2 -19 -5 0 -14 12 -20 26 -14 29 2 24 18 -7z m210 10
c0 -4 -7 -6 -15 -3 -8 4 -15 10 -15 15 0 4 7 6 15 3 8 -4 15 -10 15 -15z m165
11 c3 -5 1 -10 -4 -10 -6 0 -11 5 -11 10 0 6 2 10 4 10 3 0 8 -4 11 -10z
m2205 -15 c14 -19 14 -19 -2 -6 -10 7 -18 18 -18 24 0 6 1 8 3 6 1 -2 9 -13
17 -24z m-3294 -20 c7 -19 14 -38 14 -42 0 -5 -31 -28 -69 -51 -256 -158 -498
-394 -630 -615 -165 -275 -190 -571 -65 -768 13 -21 24 -42 24 -46 0 -11 -83
81 -115 126 -118 171 -105 460 33 711 92 169 292 385 487 529 99 72 282 189
298 190 4 1 15 -15 23 -34z m84 -1 c0 -8 -7 -14 -15 -14 -10 0 -15 10 -15 26
0 22 2 25 15 14 8 -7 15 -19 15 -26z m588 11 c-3 -3 -9 2 -12 12 -6 14 -5 15
5 6 7 -7 10 -15 7 -18z m382 3 c0 -13 -23 -5 -28 10 -2 7 2 10 12 6 9 -3 16
-11 16 -16z m270 12 c0 -5 -5 -10 -11 -10 -5 0 -7 5 -4 10 3 6 8 10 11 10 2 0
4 -4 4 -10z m371 -13 c-10 -9 -11 -8 -5 6 3 10 9 15 12 12 3 -3 0 -11 -7 -18z
m1503 -4 c14 -14 24 -28 22 -31 -7 -6 -66 37 -66 49 0 16 17 10 44 -18z
m-1286 -8 c-6 -14 -13 -23 -15 -21 -5 5 15 46 22 46 3 0 -1 -11 -7 -25z m68
-22 c-10 -26 -18 -8 -9 23 5 21 8 24 11 11 2 -10 1 -25 -2 -34z m44 18 c-4
-16 -6 -32 -2 -35 3 -3 -2 -6 -11 -6 -13 0 -14 6 -6 32 5 18 9 34 9 35 0 2 4
3 9 3 6 0 6 -12 1 -29z m46 13 c-3 -9 -6 -24 -6 -35 0 -10 -4 -19 -10 -19 -11
0 -13 30 -4 54 3 9 11 16 16 16 6 0 7 -7 4 -16z m42 -26 c-3 -45 -22 -51 -24
-8 -1 32 6 50 18 50 5 0 8 -19 6 -42z m46 20 c7 -36 4 -58 -9 -58 -7 0 -12 17
-13 40 -2 43 15 55 22 18z m56 -2 c0 -13 3 -31 6 -40 5 -12 0 -16 -18 -16 -22
0 -24 4 -22 38 2 45 1 42 19 42 9 0 15 -9 15 -24z m50 -21 c0 -25 -4 -45 -10
-45 -5 0 -10 1 -11 3 0 1 -2 21 -5 45 -5 34 -3 42 10 42 12 0 16 -10 16 -45z
m710 25 c21 -11 42 -25 45 -31 7 -10 -51 17 -85 40 -25 18 -1 12 40 -9z
m-2790 -22 c-1 -31 -2 -32 -15 -15 -7 11 -11 25 -8 33 10 25 23 15 23 -18z
m254 26 c9 -4 21 -14 26 -24 7 -13 4 -20 -15 -28 -19 -9 -28 -7 -49 9 -30 24
-33 36 -8 42 27 7 29 7 46 1z m214 -14 c15 -25 8 -40 -18 -40 -25 0 -55 41
-37 52 21 13 42 9 55 -12z m200 2 c6 -18 -15 -14 -22 4 -4 10 -1 14 6 12 6 -2
14 -10 16 -16z m152 -4 c0 -6 -6 -5 -15 2 -8 7 -15 14 -15 16 0 2 7 1 15 -2 8
-4 15 -11 15 -16z m370 12 c0 -5 -5 -10 -11 -10 -5 0 -7 5 -4 10 3 6 8 10 11
10 2 0 4 -4 4 -10z m566 -26 c-4 -14 -9 -24 -12 -21 -3 2 -2 17 2 31 3 15 9
25 11 22 3 -3 2 -17 -1 -32z m1037 -23 c7 -8 -7 -4 -31 9 -24 14 -49 31 -55
39 -7 8 7 4 31 -9 24 -14 49 -31 55 -39z m-2163 14 c0 -5 -5 -3 -10 5 -5 8
-10 20 -10 25 0 6 5 3 10 -5 5 -8 10 -19 10 -25z m690 25 c0 -5 -5 -10 -11
-10 -5 0 -7 5 -4 10 3 6 8 10 11 10 2 0 4 -4 4 -10z m363 -5 c-3 -9 -8 -14
-10 -11 -3 3 -2 9 2 15 9 16 15 13 8 -4z m1312 -21 c17 -14 24 -24 16 -24 -16
0 -81 41 -81 52 0 12 35 -3 65 -28z m116 3 c12 -22 12 -22 -10 -3 -11 11 -21
23 -21 28 0 14 19 -1 31 -25z m-3061 8 c7 -9 11 -17 9 -18 -2 -1 -12 -9 -21
-16 -16 -12 -18 -10 -18 18 0 34 11 39 30 16z m1190 5 c0 -5 -5 -10 -11 -10
-5 0 -7 5 -4 10 3 6 8 10 11 10 2 0 4 -4 4 -10z m140 6 c0 -3 -4 -8 -10 -11
-5 -3 -10 -1 -10 4 0 6 5 11 10 11 6 0 10 -2 10 -4z m60 -1 c0 -2 -10 -10 -22
-16 -21 -11 -22 -11 -9 4 13 16 31 23 31 12z m1263 -53 c25 -22 22 -27 -35
-45 -128 -40 -221 -52 -457 -62 l-123 -5 7 38 c4 20 11 42 16 48 5 6 42 12 81
13 94 2 283 28 362 50 59 17 62 17 96 -2 19 -11 43 -27 53 -35z m-2516 26 c28
-27 29 -34 2 -49 -18 -9 -26 -6 -50 17 l-29 28 22 13 c30 16 28 16 55 -9z
m205 5 c10 -9 18 -22 18 -28 0 -21 -32 -27 -51 -9 -22 20 -25 40 -6 47 19 8
19 8 39 -10z m2344 -14 c3 -6 -5 -3 -20 6 -14 10 -26 19 -26 22 0 7 39 -17 46
-28z m-2781 -23 c4 -30 -10 -35 -23 -8 -7 15 -8 23 -3 49 3 16 24 -17 26 -41z
m615 1 c0 -6 -9 -2 -20 8 -11 10 -17 22 -13 28 6 10 33 -19 33 -36z m180 22
c0 -6 -4 -7 -10 -4 -5 3 -10 11 -10 16 0 6 5 7 10 4 6 -3 10 -11 10 -16z m124
-10 c-8 -13 -24 -1 -24 18 0 13 3 13 15 3 8 -7 12 -16 9 -21z m636 28 c0 -2
-10 -12 -22 -23 l-23 -19 19 23 c18 21 26 27 26 19z m50 0 c0 -2 -12 -14 -27
-28 -20 -18 -24 -19 -13 -4 18 24 40 42 40 32z m1391 -24 c45 -32 52 -50 11
-29 -28 14 -71 56 -58 56 4 0 25 -12 47 -27z m159 -17 c7 -9 8 -16 3 -16 -14
0 -53 30 -53 41 0 12 32 -4 50 -25z m-2405 13 c11 -17 -1 -21 -15 -4 -8 9 -8
15 -2 15 6 0 14 -5 17 -11z m905 -19 c-6 -12 -14 -19 -17 -17 -2 3 1 15 7 27
6 12 14 19 17 17 2 -3 -1 -15 -7 -27z m36 -12 c-19 -27 -21 -19 -4 18 7 14 14
21 16 15 2 -6 -4 -21 -12 -33z m-1312 10 c14 -20 14 -23 -5 -36 -18 -13 -23
-12 -45 9 -18 17 -21 25 -13 36 17 20 46 16 63 -9z m180 -1 c8 -13 8 -20 -3
-26 -18 -11 -38 -4 -45 16 -14 35 27 44 48 10z m320 8 c3 -9 0 -15 -8 -15 -8
0 -16 7 -20 15 -3 9 0 15 8 15 8 0 16 -7 20 -15z m471 5 c-3 -5 -12 -10 -18
-10 -7 0 -6 4 3 10 19 12 23 12 15 0z m65 7 c0 -2 -10 -12 -22 -23 l-23 -19
19 23 c18 21 26 27 26 19z m322 -22 c-4 -26 -22 -45 -22 -25 0 12 18 50 24 50
2 0 1 -11 -2 -25z m86 -15 c-5 -17 -14 -30 -19 -30 -12 0 -11 14 2 44 16 35
30 23 17 -14z m1133 23 c27 -16 47 -43 31 -43 -11 1 -78 59 -69 60 5 0 22 -8
38 -17z m-3031 -65 c0 -4 -53 -47 -117 -95 -151 -112 -368 -329 -449 -448 -74
-109 -133 -223 -171 -330 -26 -74 -28 -91 -27 -235 0 -165 7 -203 51 -273 14
-22 22 -42 19 -45 -13 -13 -89 77 -122 143 -184 373 93 896 683 1291 l97 65
18 -33 c9 -18 17 -36 18 -40z m20 52 c6 -11 8 -20 6 -20 -3 0 -10 9 -16 20 -6
11 -8 20 -6 20 3 0 10 -9 16 -20z m90 10 c0 -5 -5 -10 -11 -10 -5 0 -7 5 -4
10 3 6 8 10 11 10 2 0 4 -4 4 -10z m131 -10 c24 -20 24 -20 5 -35 -25 -19 -26
-19 -60 11 -23 21 -26 28 -15 35 22 14 45 11 70 -11z m1289 -5 c-7 -8 -17 -15
-23 -15 -5 0 -2 9 8 20 21 23 35 19 15 -5z m330 21 c0 -18 -22 -56 -30 -51
-11 7 8 55 22 55 4 0 8 -2 8 -4z m84 -44 c-7 -34 -18 -41 -28 -17 -7 19 15 68
26 57 4 -4 5 -23 2 -40z m46 2 c0 -24 -4 -34 -16 -34 -12 0 -15 8 -10 38 3 20
5 38 6 40 0 2 5 0 10 -3 6 -3 10 -22 10 -41z m1030 -3 c17 -14 20 -21 10 -21
-8 0 -33 16 -55 36 -36 31 -37 33 -10 20 17 -9 41 -24 55 -35z m192 -5 c9 -17
7 -17 -21 3 -17 12 -31 30 -31 38 0 14 3 13 21 -3 11 -10 25 -27 31 -38z
m-2458 28 c3 -8 2 -12 -4 -9 -6 3 -10 10 -10 16 0 14 7 11 14 -7z m154 -2 c2
-7 -2 -10 -12 -6 -9 3 -16 11 -16 16 0 13 23 5 28 -10z m1137 -13 c5 -29 -8
-54 -24 -45 -15 9 -14 49 1 64 14 14 18 11 23 -19z m50 12 c8 -26 -5 -73 -19
-68 -10 3 -17 63 -9 80 7 13 22 7 28 -12z m59 1 c-1 -6 -2 -25 -2 -42 -2 -31
-31 -44 -33 -15 -5 58 0 77 19 73 9 -2 17 -9 16 -16z m-1774 -16 c21 -17 26
-26 17 -35 -18 -18 -47 -13 -67 11 -16 21 -16 23 -1 35 21 16 19 17 51 -11z
m195 2 c14 -21 14 -24 -5 -32 -25 -11 -56 14 -47 38 9 23 33 20 52 -6z m675
18 c0 -3 -4 -8 -10 -11 -5 -3 -10 -1 -10 4 0 6 5 11 10 11 6 0 10 -2 10 -4z
m320 -11 c-7 -9 -15 -13 -17 -11 -7 7 7 26 19 26 6 0 6 -6 -2 -15z m630 -4 c0
-11 -5 -32 -11 -48 -14 -35 -23 -15 -15 33 7 36 26 47 26 15z m-1481 -13 c5
-13 7 -25 4 -28 -5 -6 -33 30 -33 42 0 17 21 7 29 -14z m2266 -23 l30 -26 -30
15 c-17 7 -39 24 -50 36 -20 23 -20 23 0 12 11 -6 34 -23 50 -37z m-2865 14
c0 -5 -4 -9 -10 -9 -5 0 -10 7 -10 16 0 8 5 12 10 9 6 -3 10 -10 10 -16z m62
-35 c-22 -16 -42 -1 -42 33 l0 24 30 -22 c27 -20 28 -23 12 -35z m823 46 c3
-5 1 -10 -4 -10 -6 0 -11 5 -11 10 0 6 2 10 4 10 3 0 8 -4 11 -10z m1922 -24
c48 -38 46 -43 -22 -70 -38 -14 -154 -47 -220 -61 -16 -4 -130 -9 -252 -12
-247 -6 -242 -7 -229 60 l6 32 99 1 c167 2 281 13 391 38 58 13 116 29 130 35
40 16 52 13 97 -23z m248 4 c35 -36 16 -41 -20 -5 -14 14 -25 28 -25 30 0 13
19 2 45 -25z m-1875 16 c0 -3 -4 -8 -10 -11 -5 -3 -10 -1 -10 4 0 6 5 11 10
11 6 0 10 -2 10 -4z m340 -17 c-7 -11 -14 -18 -17 -15 -3 3 0 12 7 21 18 21
23 19 10 -6z m46 -15 c-10 -14 -20 -23 -23 -20 -3 3 2 17 11 32 10 14 20 23
23 20 3 -3 -2 -17 -11 -32z m1594 16 c6 -11 8 -20 6 -20 -3 0 -10 9 -16 20 -6
11 -8 20 -6 20 3 0 10 -9 16 -20z m-2770 -5 c14 -17 6 -45 -13 -45 -19 0 -50
36 -42 49 9 16 41 13 55 -4z m165 -6 c4 -11 4 -23 0 -27 -9 -9 -40 13 -43 32
-5 24 35 20 43 -5z m285 0 c0 -6 -4 -7 -10 -4 -5 3 -10 11 -10 16 0 6 5 7 10
4 6 -3 10 -11 10 -16z m240 17 c0 -3 -4 -8 -10 -11 -5 -3 -10 -1 -10 4 0 6 5
11 10 11 6 0 10 -2 10 -4z m529 -38 c-7 -13 -14 -18 -16 -11 -3 7 1 22 8 35 7
13 14 18 16 11 3 -7 -1 -22 -8 -35z m-1649 11 c0 -18 -2 -19 -15 -9 -15 12
-12 30 6 30 5 0 9 -10 9 -21z m236 0 c18 -20 18 -21 0 -34 -16 -12 -22 -11
-46 7 -16 11 -26 27 -23 34 8 21 47 17 69 -7z m1016 -1 c-7 -7 -12 -8 -12 -2
0 14 12 26 19 19 2 -3 -1 -11 -7 -17z m458 17 c0 -12 -24 -55 -32 -55 -11 0
-10 17 2 41 9 17 30 27 30 14z m1355 -25 c41 -43 24 -48 -22 -6 -24 23 -32 36
-22 36 8 0 28 -13 44 -30z m-2339 -7 c-7 -7 -26 7 -26 19 0 6 6 6 15 -2 9 -7
13 -15 11 -17z m122 -9 c-10 -10 -28 6 -28 24 0 15 1 15 17 -1 9 -9 14 -19 11
-23z m901 6 c-11 -31 -29 -41 -29 -16 0 25 12 46 26 46 10 0 11 -6 3 -30z
m1441 -1 c6 -10 9 -19 6 -19 -9 0 -36 31 -36 41 0 14 18 1 30 -22z m-2826 -1
c20 -28 20 -34 0 -42 -9 -3 -26 2 -39 12 -22 18 -23 20 -7 35 21 22 28 21 46
-5z m180 -1 c18 -29 -14 -43 -36 -16 -10 12 -15 25 -12 31 9 14 35 6 48 -15z
m531 13 c3 -5 1 -10 -4 -10 -6 0 -11 5 -11 10 0 6 2 10 4 10 3 0 8 -4 11 -10z
m85 0 c0 -5 -5 -10 -11 -10 -5 0 -7 5 -4 10 3 6 8 10 11 10 2 0 4 -4 4 -10z
m310 -20 c-6 -12 -14 -20 -17 -17 -2 3 1 14 8 26 17 26 24 19 9 -9z m330 12
c0 -10 -6 -27 -14 -38 -13 -17 -15 -17 -21 -2 -7 18 10 58 25 58 6 0 10 -8 10
-18z m50 -11 c0 -9 -6 -25 -13 -35 -13 -17 -14 -17 -20 -2 -8 21 10 69 23 61
5 -3 10 -14 10 -24z m1189 -15 c14 -14 19 -26 13 -26 -11 0 -72 55 -72 65 0
10 34 -13 59 -39z m-2361 22 c16 -16 15 -28 -3 -28 -8 0 -19 9 -25 20 -8 15
-8 20 3 20 7 0 18 -5 25 -12z m622 -3 c-7 -9 -15 -13 -17 -11 -7 7 7 26 19 26
6 0 6 -6 -2 -15z m598 -14 c2 -12 1 -29 -2 -37 -7 -19 -35 -7 -31 14 2 9 4 25
4 35 1 26 25 16 29 -12z m-1942 -16 l19 -36 -35 -27 c-266 -207 -451 -416
-562 -635 -69 -136 -99 -247 -105 -392 -5 -113 -4 -125 21 -195 44 -122 44
-115 8 -96 -49 25 -104 127 -127 234 -13 59 -13 162 0 222 2 14 7 39 11 55 12
58 68 191 114 271 95 165 248 340 420 481 91 74 199 153 210 153 4 0 15 -16
26 -35z m84 19 c0 -8 -4 -12 -10 -9 -5 3 -10 10 -10 16 0 5 5 9 10 9 6 0 10
-7 10 -16z m129 -4 c18 -16 21 -23 12 -34 -14 -17 -44 -10 -66 14 -34 38 12
54 54 20z m631 16 c0 -2 3 -11 6 -20 9 -23 -13 -20 -26 4 -9 16 -8 20 5 20 8
0 15 -2 15 -4z m407 -22 c-9 -9 -28 6 -21 18 4 6 10 6 17 -1 6 -6 8 -13 4 -17z
m323 12 c0 -16 -24 -38 -33 -30 -7 7 14 44 25 44 5 0 8 -6 8 -14z m423 -25
c-1 -37 -7 -46 -22 -36 -12 7 -15 58 -4 69 15 14 28 -2 26 -33z m-1462 -3 c18
-34 -11 -42 -41 -12 -20 20 -22 26 -11 33 19 12 39 3 52 -21z m149 -9 c0 -11
-4 -19 -9 -19 -16 0 -33 30 -27 46 5 13 9 14 21 4 8 -7 15 -21 15 -31z m480
20 c0 -5 -4 -9 -10 -9 -5 0 -10 7 -10 16 0 8 5 12 10 9 6 -3 10 -10 10 -16z
m225 1 c-20 -23 -29 -21 -19 4 3 9 13 16 22 16 13 0 12 -3 -3 -20z m225 -15
c-7 -8 -16 -15 -21 -15 -14 0 -10 17 8 36 20 20 32 1 13 -21z m444 3 c-2 -18
-8 -36 -13 -41 -13 -13 -30 0 -26 21 2 9 4 25 4 35 1 10 9 17 20 17 15 0 18
-6 15 -32z m51 13 c7 -22 -11 -74 -24 -67 -7 4 -8 70 -2 84 4 9 21 -1 26 -17z
m935 -16 c19 -19 31 -35 28 -35 -3 0 -25 16 -48 35 -23 19 -36 35 -28 35 8 0
29 -16 48 -35z m171 13 c10 -13 18 -26 19 -31 0 -11 -36 14 -49 34 -17 28 6
24 30 -3z m-2407 -13 c3 -8 0 -17 -6 -21 -11 -7 -28 13 -28 33 0 16 27 6 34
-12z m857 -7 c-8 -24 -31 -37 -31 -19 0 17 23 50 32 45 4 -3 4 -14 -1 -26z
m477 -20 c-14 -39 -21 -29 -12 17 4 23 9 32 14 25 5 -7 3 -26 -2 -42z m-1793
28 c11 -8 16 -19 12 -30 -8 -21 -29 -20 -57 2 -40 32 3 59 45 28z m945 0 c0
-17 -14 -29 -23 -20 -8 8 3 34 14 34 5 0 9 -6 9 -14z m148 2 c-6 -18 -28 -21
-28 -4 0 9 7 16 16 16 9 0 14 -5 12 -12z m1561 -18 c17 -17 31 -34 31 -38 0
-11 -90 -54 -155 -76 -135 -43 -224 -55 -430 -54 -177 0 -299 9 -312 22 -2 2
0 21 6 42 10 39 11 39 58 37 94 -4 289 -3 338 2 47 4 81 9 150 21 55 9 139 32
190 52 69 28 87 26 124 -8z m-1279 11 c0 -5 -9 -19 -20 -32 -19 -23 -19 -23
-20 -3 0 20 17 44 32 44 4 0 8 -4 8 -9z m1481 -43 c5 -10 7 -18 5 -18 -10 0
-56 51 -56 62 0 13 38 -20 51 -44z m-3049 25 c24 -22 23 -35 -4 -31 -15 2 -24
11 -26 26 -4 26 5 28 30 5z m317 -5 c22 -23 19 -38 -8 -38 -27 0 -54 33 -39
48 17 17 24 15 47 -10z m161 7 c13 -16 6 -35 -15 -35 -12 0 -25 21 -25 41 0
14 26 11 40 -6z m125 -6 c8 -23 1 -34 -14 -24 -13 8 -15 45 -2 45 5 0 13 -9
16 -21z m240 11 c3 -5 1 -10 -4 -10 -6 0 -11 5 -11 10 0 6 2 10 4 10 3 0 8 -4
11 -10z m120 1 c3 -5 1 -12 -5 -16 -5 -3 -10 1 -10 9 0 18 6 21 15 7z m79 -6
c-4 -8 -10 -15 -15 -15 -4 0 -6 7 -3 15 4 8 10 15 15 15 4 0 6 -7 3 -15z m286
-5 c-6 -11 -17 -20 -26 -20 -12 0 -12 4 -4 20 6 11 17 20 26 20 12 0 12 -4 4
-20z m280 -4 c0 -28 -25 -55 -33 -34 -5 16 13 58 25 58 4 0 8 -11 8 -24z
m1528 -12 c-4 -3 -12 5 -18 18 -12 22 -12 22 6 6 10 -10 15 -20 12 -24z
m-2424 10 c5 -14 4 -15 -9 -4 -17 14 -19 20 -6 20 5 0 12 -7 15 -16z m458 -6
c-7 -7 -12 -8 -12 -2 0 14 12 26 19 19 2 -3 -1 -11 -7 -17z m208 -9 c-6 -10
-17 -19 -25 -19 -19 0 -19 9 1 31 21 23 38 14 24 -12z m290 11 c0 -5 -5 -21
-10 -35 -8 -22 -13 -25 -25 -15 -14 11 -11 33 8 57 10 13 27 9 27 -7z m-1536
-11 c28 -22 27 -39 -3 -39 -26 0 -66 34 -57 48 11 18 30 15 60 -9z m676 -5 c0
-8 -4 -12 -10 -9 -5 3 -10 13 -10 21 0 8 5 12 10 9 6 -3 10 -13 10 -21z m2195
0 c27 -29 33 -48 13 -42 -17 6 -62 68 -49 68 7 0 23 -12 36 -26z m-2581 0 c20
-19 21 -44 3 -44 -8 0 -21 8 -30 18 -13 14 -14 21 -5 30 15 15 13 15 32 -4z
m140 0 c3 -9 6 -23 6 -32 -1 -14 -5 -12 -20 7 -11 12 -17 27 -14 32 8 14 21
11 28 -7z m522 0 c-3 -9 -6 -18 -6 -20 0 -3 -4 -3 -10 1 -11 7 -2 35 12 35 6
0 7 -7 4 -16z m334 -29 c-7 -8 -16 -15 -21 -15 -15 0 -10 28 9 46 16 17 17 17
20 0 2 -9 -2 -23 -8 -31z m302 15 c-5 -33 -20 -49 -31 -31 -5 7 -7 21 -6 30 2
9 4 20 4 24 1 5 9 7 19 5 12 -2 16 -11 14 -28z m-1822 -19 l19 -39 -47 -39
c-57 -47 -189 -179 -264 -264 -160 -183 -285 -424 -315 -607 -17 -104 -3 -264
32 -344 6 -14 2 -18 -17 -18 -33 0 -65 32 -92 95 -66 148 -47 349 53 560 90
189 169 296 350 475 82 81 241 216 258 220 2 0 12 -18 23 -39z m362 22 c40
-36 6 -65 -38 -31 -25 20 -26 22 -8 35 23 16 24 16 46 -4z m422 -22 c-6 -6
-24 19 -24 34 1 6 7 1 15 -9 8 -11 12 -22 9 -25z m206 23 c0 -8 -5 -12 -10 -9
-6 4 -8 11 -5 16 9 14 15 11 15 -7z m110 -6 c0 -16 -3 -19 -11 -11 -6 6 -8 16
-5 22 11 17 16 13 16 -11z m780 -2 c0 -36 -10 -55 -26 -49 -14 5 -20 54 -7 66
15 15 33 6 33 -17z m1353 -26 c-6 -6 -33 30 -33 44 0 6 9 0 20 -14 10 -14 16
-27 13 -30z m-1653 26 c0 -25 -12 -46 -26 -46 -17 0 -18 32 -2 48 16 16 28 15
28 -2z m355 -6 c8 -26 -3 -60 -20 -60 -17 0 -22 16 -17 52 5 32 28 37 37 8z
m1146 -12 c18 -20 26 -34 19 -36 -12 -4 -59 44 -60 61 0 13 10 7 41 -25z
m-3021 12 c0 -5 -2 -10 -4 -10 -3 0 -8 5 -11 10 -3 6 -1 10 4 10 6 0 11 -4 11
-10z m114 -11 c26 -20 26 -23 11 -38 -15 -15 -18 -14 -41 12 -42 48 -21 66 30
26z m453 -6 c18 -26 1 -40 -21 -17 -19 18 -21 47 -4 42 6 -2 18 -14 25 -25z
m252 -18 c0 -5 -6 -1 -14 9 -8 10 -11 24 -8 29 6 10 21 -16 22 -38z m511 24
c-7 -11 -14 -19 -16 -16 -7 7 7 37 17 37 6 0 5 -9 -1 -21z m604 -1 c-1 -13 -3
-31 -3 -40 -1 -10 -7 -18 -15 -18 -16 0 -24 24 -18 58 3 13 12 22 21 22 12 0
17 -7 15 -22z m42 -44 c-4 -13 -11 -24 -16 -24 -14 0 -12 47 2 73 l13 22 3
-24 c2 -12 1 -34 -2 -47z m-1558 44 c14 -14 16 -48 2 -48 -14 0 -50 42 -44 52
7 12 28 10 42 -4z m260 0 c7 -7 12 -19 12 -27 0 -11 -4 -10 -20 4 -21 19 -26
35 -12 35 4 0 13 -5 20 -12z m504 -10 c-7 -7 -12 -8 -12 -2 0 14 12 26 19 19
2 -3 -1 -11 -7 -17z m393 0 c-10 -32 -23 -44 -34 -32 -13 13 5 54 24 54 12 0
15 -6 10 -22z m1410 -15 l37 -36 -23 -18 c-32 -24 -133 -73 -191 -93 -63 -21
-103 -29 -218 -45 -67 -9 -382 -7 -435 3 -105 20 -161 30 -167 28 -11 -3 -10
10 3 48 l12 33 136 -8 c156 -9 333 -9 388 0 21 3 66 10 101 15 78 13 203 53
262 85 25 13 48 24 51 25 3 0 23 -16 44 -37z m-2726 -7 c14 -17 7 -36 -13 -36
-7 0 -26 10 -41 22 -26 20 -26 22 -10 34 19 14 42 7 64 -20z m641 19 c0 -8 -4
-15 -10 -15 -5 0 -10 7 -10 15 0 8 5 15 10 15 6 0 10 -7 10 -15z m100 -6 c0
-11 -4 -18 -10 -14 -5 3 -7 12 -3 20 7 21 13 19 13 -6z m80 17 c0 -3 -4 -8
-10 -11 -5 -3 -10 -1 -10 4 0 6 5 11 10 11 6 0 10 -2 10 -4z m292 -34 c-14
-21 -17 -23 -20 -9 -4 21 16 49 29 41 5 -3 1 -17 -9 -32z m1776 13 c7 -14 12
-29 12 -33 -1 -10 -40 38 -40 49 0 18 17 8 28 -16z m-1927 -18 c-8 -8 -11 -7
-11 4 0 20 13 34 18 19 3 -7 -1 -17 -7 -23z m409 14 c0 -23 -28 -48 -39 -35
-13 13 6 54 24 54 8 0 15 -8 15 -19z m377 -3 c-3 -8 -6 -5 -6 6 -1 11 2 17 5
13 3 -3 4 -12 1 -19z m-1932 -27 c10 -25 -6 -27 -26 -2 -10 13 -19 27 -19 32
0 13 38 -13 45 -30z m445 24 c6 -8 10 -22 8 -31 -3 -15 -5 -14 -27 3 -14 11
-21 25 -17 31 10 16 21 15 36 -3z m124 -1 c3 -9 6 -23 6 -32 -1 -15 -3 -14
-15 2 -17 22 -20 46 -6 46 5 0 12 -7 15 -16z m788 -10 c-5 -28 -20 -40 -33
-27 -8 8 -8 17 1 33 13 25 36 21 32 -6z m252 -1 c5 -27 -12 -53 -30 -46 -17 6
-11 52 9 65 14 8 18 5 21 -19z m-1311 -1 c14 -15 15 -21 4 -36 -12 -16 -14
-15 -36 8 -23 24 -22 46 3 46 7 0 20 -8 29 -18z m407 3 c0 -8 -2 -15 -4 -15
-2 0 -6 7 -10 15 -3 8 -1 15 4 15 6 0 10 -7 10 -15z m77 -22 c-3 -10 -5 -4 -5
12 0 17 2 24 5 18 2 -7 2 -21 0 -30z m274 4 c-8 -8 -11 -7 -11 4 0 20 13 34
18 19 3 -7 -1 -17 -7 -23z m1993 2 c10 -17 16 -33 13 -35 -5 -5 -47 49 -47 60
0 16 18 3 34 -25z m-2914 -31 c0 -21 -33 -19 -56 3 -23 22 -24 24 -8 36 15 11
21 10 41 -9 13 -12 23 -25 23 -30z m817 30 c-3 -8 -6 -5 -6 6 -1 11 2 17 5 13
3 -3 4 -12 1 -19z m716 -12 c-3 -36 -14 -48 -32 -37 -20 13 -5 73 17 69 12 -2
16 -12 15 -32z m-1271 7 c17 -15 25 -43 12 -43 -18 0 -44 24 -44 40 0 24 8 25
32 3z m148 -30 c0 -16 -27 -6 -34 14 -3 8 -3 20 0 25 8 12 34 -18 34 -39z
m337 15 c-3 -7 -5 -2 -5 12 0 14 2 19 5 13 2 -7 2 -19 0 -25z m94 9 c-10 -9
-11 -8 -5 6 3 10 9 15 12 12 3 -3 0 -11 -7 -18z m237 3 c-7 -10 -14 -17 -17
-15 -4 4 18 35 25 35 2 0 -1 -9 -8 -20z m202 1 c0 -10 -7 -24 -16 -32 -13 -10
-17 -10 -24 1 -11 18 6 50 25 50 8 0 15 -8 15 -19z m316 -25 c-3 -11 -5 -24
-5 -28 -1 -5 -10 -8 -21 -8 -15 0 -20 7 -20 28 0 35 18 56 37 41 7 -6 11 -21
9 -33z m1408 28 c3 -8 2 -12 -4 -9 -6 3 -10 10 -10 16 0 14 7 11 14 -7z
m-3216 -26 l21 -33 -113 -115 c-237 -243 -381 -484 -441 -740 -17 -74 -15
-257 4 -303 15 -38 15 -37 -22 -37 -41 0 -59 19 -83 85 -26 74 -24 245 5 349
56 208 200 440 393 636 100 101 197 190 209 190 4 0 16 -15 27 -32z m722 -1
c0 -5 -4 -5 -10 -2 -5 3 -10 14 -10 23 0 15 2 15 10 2 5 -8 10 -19 10 -23z
m2395 -35 c-8 -8 -55 47 -55 63 0 6 14 -5 31 -23 17 -19 27 -37 24 -40z
m-2796 35 c18 -20 19 -26 8 -35 -19 -16 -72 29 -55 46 17 17 21 15 47 -11z
m1007 -15 c-14 -14 -16 -14 -16 -1 0 20 23 44 29 28 2 -6 -4 -18 -13 -27z
m220 16 c-3 -13 -6 -26 -6 -30 0 -15 -40 -8 -40 6 0 28 13 46 32 46 16 0 19
-5 14 -22z m316 -13 c-4 -37 -18 -53 -33 -38 -17 17 -1 75 19 71 12 -3 16 -12
14 -33z m-781 -2 c-12 -20 -14 -14 -5 12 4 9 9 14 11 11 3 -2 0 -13 -6 -23z
m111 5 c-7 -7 -12 -8 -12 -2 0 14 12 26 19 19 2 -3 -1 -11 -7 -17z m724 -9 c2
-29 -14 -62 -26 -54 -5 3 -7 18 -6 33 2 15 4 33 5 40 2 23 26 7 27 -19z m1294
-13 c0 -5 -7 -3 -15 4 -8 7 -15 20 -15 28 0 13 3 12 15 -4 8 -10 15 -23 15
-28z m-3073 12 c26 -25 29 -38 8 -38 -15 0 -55 38 -55 52 0 15 24 8 47 -14z
m310 -14 c7 -20 -2 -27 -25 -20 -22 7 -36 32 -26 47 7 12 43 -8 51 -27z m123
21 c19 -22 7 -41 -13 -21 -18 19 -22 36 -8 36 5 0 14 -7 21 -15z m114 -1 c11
-28 6 -39 -9 -20 -8 11 -15 23 -15 28 0 14 18 9 24 -8z m121 6 c3 -5 2 -10 -4
-10 -5 0 -13 5 -16 10 -3 6 -2 10 4 10 5 0 13 -4 16 -10z m98 -10 c3 -11 1
-20 -4 -20 -5 0 -9 9 -9 20 0 11 2 20 4 20 2 0 6 -9 9 -20z m84 -12 c-3 -7 -5
-2 -5 12 0 14 2 19 5 13 2 -7 2 -19 0 -25z m412 19 c15 -19 -10 -53 -32 -44
-14 5 -15 11 -5 32 13 28 21 31 37 12z m194 7 c9 -3 12 -14 9 -30 -5 -29 -15
-36 -35 -28 -12 4 -13 11 -5 35 11 32 10 31 31 23z m362 -33 c-9 -41 -28 -52
-22 -13 6 34 16 56 24 48 3 -2 2 -18 -2 -35z m1113 6 c12 -18 22 -36 22 -39 0
-10 -95 -75 -149 -102 -63 -32 -202 -73 -284 -83 -34 -5 -136 -7 -227 -7 -162
2 -271 14 -423 50 -69 17 -69 17 -63 47 11 52 18 55 95 41 151 -29 476 -39
596 -20 132 22 262 67 345 118 25 15 50 28 55 28 6 0 20 -15 33 -33z m-1842
-3 c-4 -9 -9 -15 -11 -12 -3 3 -3 13 1 22 4 9 9 15 11 12 3 -3 3 -13 -1 -22z
m-956 -9 c18 -19 21 -28 12 -37 -13 -13 -62 14 -62 36 0 33 20 33 50 1z m1388
12 c15 -18 3 -57 -17 -57 -26 0 -30 9 -19 41 11 32 20 36 36 16z m-1114 -49
c-4 -6 -15 -2 -26 10 -12 12 -17 25 -13 33 6 9 13 6 27 -10 10 -13 15 -28 12
-33z m115 22 c12 -18 13 -22 2 -19 -8 3 -21 16 -30 29 -12 18 -13 22 -2 19 8
-3 21 -16 30 -29z m121 2 c0 -15 -2 -15 -10 -2 -13 20 -13 33 0 25 6 -3 10
-14 10 -23z m356 0 c-18 -16 -18 -16 -6 6 6 13 14 21 18 18 3 -4 -2 -14 -12
-24z m319 18 c11 -18 -6 -50 -26 -50 -21 0 -22 3 -13 38 7 23 28 30 39 12z
m1730 -22 c17 -29 17 -31 1 -19 -21 17 -40 51 -29 51 5 0 17 -15 28 -32z
m-2779 -37 c-5 -8 -16 -6 -37 4 -32 17 -35 25 -17 43 10 10 17 7 36 -12 14
-13 21 -29 18 -35z m1320 44 c9 -23 -5 -65 -22 -65 -19 0 -28 24 -20 55 7 27
33 34 42 10z m-1606 -38 c0 -6 -9 -2 -20 8 -11 10 -20 23 -20 28 0 6 9 2 20
-8 11 -10 20 -23 20 -28z m757 21 c-3 -8 -6 -5 -6 6 -1 11 2 17 5 13 3 -3 4
-12 1 -19z m423 13 c0 -5 -7 -14 -15 -21 -16 -14 -18 -10 -9 14 6 17 24 22 24
7z m-263 -23 c-3 -8 -6 -5 -6 6 -1 11 2 17 5 13 3 -3 4 -12 1 -19z m24 -1
c-10 -9 -11 -8 -5 6 3 10 9 15 12 12 3 -3 0 -11 -7 -18z m457 -3 c2 -11 -4
-27 -13 -34 -22 -18 -39 1 -31 35 8 32 39 31 44 -1z m267 -14 c0 -29 -4 -36
-22 -38 -24 -4 -29 11 -17 56 10 37 39 24 39 -18z m1385 -20 c0 -10 -7 -7 -20
10 -11 14 -20 32 -20 40 0 10 7 7 20 -10 11 -14 20 -32 20 -40z m-3116 28 c20
-29 20 -40 -1 -65 -10 -11 -43 -48 -73 -83 -153 -174 -275 -366 -337 -532 -47
-123 -56 -174 -57 -323 l-2 -130 -41 -3 c-40 -3 -40 -3 -54 45 -19 66 -17 242
4 320 63 236 208 472 423 689 57 57 107 104 113 104 5 0 17 -10 25 -22z m164
6 c23 -16 30 -44 12 -44 -19 0 -60 32 -60 46 0 18 20 18 48 -2z m284 -9 c6
-14 8 -28 5 -32 -9 -8 -47 27 -47 44 0 23 30 14 42 -12z m126 4 c7 -12 11 -23
8 -26 -7 -7 -25 6 -36 28 -15 27 11 26 28 -2z m737 -28 c-7 -24 -23 -24 -39 1
-7 12 -6 21 4 33 12 14 15 14 28 2 9 -9 11 -23 7 -36z m-640 18 c10 -30 0 -33
-13 -4 -6 14 -7 25 -2 25 5 0 12 -9 15 -21z m468 6 c-3 -9 -8 -14 -10 -11 -3
3 -2 9 2 15 9 16 15 13 8 -4z m387 -31 c0 -27 -25 -43 -42 -26 -6 6 -7 23 -3
41 6 27 9 29 26 21 11 -6 19 -21 19 -36z m270 27 c0 -11 -5 -32 -10 -46 -8
-22 -13 -25 -24 -16 -13 11 -13 52 0 73 10 16 34 8 34 -11z m-1506 -9 c23 -18
24 -42 2 -42 -17 0 -58 45 -49 53 10 11 23 8 47 -11z m1556 -7 c0 -8 -5 -26
-11 -42 -8 -22 -12 -24 -19 -13 -8 13 -4 52 7 73 6 11 23 -2 23 -18z m1243
-23 l17 -30 -53 -46 c-164 -140 -329 -186 -647 -181 -96 2 -186 6 -200 9 -13
3 -42 8 -64 12 -45 6 -251 59 -290 74 l-26 9 21 40 c19 37 22 39 52 30 18 -5
46 -12 62 -15 17 -2 37 -7 45 -9 16 -4 30 -7 145 -25 113 -18 358 -21 465 -5
158 23 318 85 401 155 37 30 44 28 72 -18z m-2549 16 c9 -12 13 -24 11 -27 -6
-5 -45 29 -45 41 0 15 19 8 34 -14z m-414 -13 c34 -37 17 -41 -22 -6 -22 20
-28 31 -17 31 8 0 26 -11 39 -25z m291 -2 c8 -9 9 -17 2 -24 -11 -11 -66 27
-58 41 7 11 42 1 56 -17z m229 6 c17 -30 6 -34 -14 -4 -9 14 -12 25 -7 25 6 0
15 -9 21 -21z m550 -4 c-7 -9 -15 -13 -18 -10 -3 2 1 11 8 20 7 9 15 13 18 10
3 -2 -1 -11 -8 -20z m175 14 c11 -16 -4 -59 -20 -59 -20 0 -28 17 -21 46 7 25
30 32 41 13z m213 -6 c12 -22 -3 -66 -20 -61 -24 8 -22 78 1 78 6 0 14 -8 19
-17z m284 -15 c-8 -8 -9 -4 -5 13 4 13 8 18 11 10 2 -7 -1 -18 -6 -23z m1311
-10 c6 -22 5 -22 -8 -4 -17 22 -20 40 -6 32 5 -3 11 -16 14 -28z m-2935 3 c27
-23 29 -41 4 -41 -23 0 -56 35 -47 49 9 15 16 13 43 -8z m277 -39 c-9 -9 -55
40 -48 51 4 6 16 -2 30 -18 13 -15 22 -30 18 -33z m110 0 c-6 -7 -34 29 -34
43 0 6 9 -1 20 -14 11 -13 17 -26 14 -29z m803 36 c10 -14 1 -52 -16 -62 -16
-10 -35 22 -28 49 7 27 27 33 44 13z m218 -3 c10 -26 -5 -67 -24 -63 -16 3
-26 50 -15 71 7 13 33 8 39 -8z m-1566 -62 c0 -6 -12 -23 -26 -39 -56 -64
-175 -227 -215 -295 -117 -200 -175 -373 -185 -549 -4 -58 -8 -106 -9 -108 -1
-1 -23 -5 -47 -8 -42 -5 -46 -4 -50 19 -11 56 -8 177 6 247 45 232 175 463
404 717 l74 83 24 -29 c13 -16 24 -33 24 -38z m277 45 c26 -24 30 -38 11 -38
-22 1 -61 37 -54 49 10 16 16 14 43 -11z m916 8 c7 -17 -2 -56 -12 -56 -21 0
-40 27 -35 48 7 24 39 30 47 8z m1886 -46 c0 -9 -6 -4 -14 10 -8 14 -14 32
-14 40 0 9 6 4 14 -10 8 -14 14 -32 14 -40z m-2455 34 c3 -8 2 -12 -4 -9 -6 3
-10 10 -10 16 0 14 7 11 14 -7z m999 10 c13 -5 14 -33 1 -72 -6 -20 -43 4 -39
25 2 10 4 26 4 36 1 18 10 21 34 11z m-1239 -23 c10 -11 16 -25 14 -31 -4 -14
-48 17 -48 36 0 20 14 18 34 -5z m126 0 c16 -30 12 -36 -10 -16 -21 19 -26 35
-10 35 5 0 14 -9 20 -19z m894 13 c29 -11 16 -74 -15 -74 -22 0 -28 27 -14 68
5 14 7 14 29 6z m-1283 -23 c17 -14 21 -23 14 -30 -7 -7 -19 -3 -38 15 -15 13
-27 27 -27 29 0 12 30 3 51 -14z m1562 -21 c-1 -39 -16 -56 -30 -38 -13 17 4
81 20 75 7 -2 11 -19 10 -37z m-1433 -5 c9 -11 10 -19 3 -26 -14 -14 -69 33
-59 49 8 14 35 3 56 -23z m354 19 c3 -8 2 -12 -4 -9 -6 3 -10 10 -10 16 0 14
7 11 14 -7z m651 5 c12 -19 -4 -61 -23 -57 -30 6 -28 68 2 68 8 0 18 -5 21
-11z m-774 -21 c27 -33 23 -45 -6 -18 -24 22 -32 40 -19 40 3 0 14 -10 25 -22z
m610 -19 c-8 -21 -10 -22 -16 -6 -4 10 -2 24 6 33 17 20 23 5 10 -27z m393
-12 c-8 -41 -8 -41 -33 -27 -24 12 -25 18 -11 55 8 22 13 24 31 15 17 -9 19
-17 13 -43z m246 40 c0 -7 -6 -22 -14 -33 -15 -19 -15 -19 -11 1 2 11 4 26 4
33 1 16 21 16 21 -1z m1320 -17 c10 -25 10 -34 -4 -56 -57 -86 -240 -197 -366
-221 -8 -1 -48 -9 -88 -17 -75 -14 -317 -15 -397 -1 -41 7 -219 43 -245 50
-68 17 -244 75 -252 83 -13 13 20 72 40 72 7 0 63 -13 125 -30 178 -47 280
-62 452 -65 310 -6 491 40 644 163 35 29 67 52 71 52 4 0 13 -13 20 -30z
m-2680 -26 c0 -19 -13 -18 -40 4 -32 26 -18 48 16 26 13 -9 24 -23 24 -30z
m215 20 c9 -15 12 -23 6 -20 -11 7 -35 46 -28 46 3 0 12 -12 22 -26z m-500 -4
c27 -30 12 -34 -15 -5 -13 14 -19 25 -13 25 5 0 18 -9 28 -20z m1069 5 c12
-12 13 -21 4 -46 l-11 -31 -20 20 c-14 15 -18 27 -13 46 7 30 18 33 40 11z
m170 -38 c-8 -41 -8 -41 -33 -27 -23 12 -26 31 -11 61 9 16 15 17 31 8 16 -8
19 -16 13 -42z m226 -8 c0 -39 -5 -44 -34 -33 -31 12 -17 85 15 77 15 -4 19
-14 19 -44z m-1350 21 c17 -13 22 -22 15 -29 -13 -13 -55 13 -55 35 0 19 10
17 40 -6z m255 0 c10 -11 16 -22 14 -25 -7 -6 -49 24 -49 36 0 15 16 10 35
-11z m115 -11 c15 -28 5 -23 -15 7 -9 15 -12 23 -6 20 6 -4 16 -16 21 -27z
m-522 -10 l24 -29 -50 -68 c-153 -207 -275 -457 -297 -607 -4 -22 -8 -47 -10
-55 -2 -8 -5 -43 -6 -78 l-2 -62 -39 -11 c-67 -18 -73 -13 -74 66 -3 195 98
453 272 695 60 83 142 180 152 179 4 0 18 -13 30 -30z m3062 11 c0 -11 -2 -20
-4 -20 -2 0 -6 9 -9 20 -3 11 -1 20 4 20 5 0 9 -9 9 -20z m-2785 -12 c9 -14
11 -24 5 -26 -16 -6 -62 27 -55 38 10 17 33 11 50 -12z m739 -26 c-7 -25 -13
-27 -37 -9 -16 11 -16 14 -1 35 14 20 19 22 30 10 8 -7 11 -23 8 -36z m318 36
c21 -17 13 -80 -10 -76 -23 5 -36 32 -28 61 7 30 15 33 38 15z m226 -12 c6
-29 -7 -66 -23 -66 -11 0 -15 11 -15 38 0 21 3 42 7 46 11 10 28 1 31 -18z
m-1048 -29 c0 -6 -9 -2 -20 8 -11 10 -20 23 -20 28 0 6 9 2 20 -8 11 -10 20
-23 20 -28z m658 31 c14 -14 16 -54 3 -62 -12 -8 -38 3 -44 17 -6 15 10 57 21
57 4 0 13 -5 20 -12z m-1045 -26 c18 -16 23 -32 9 -32 -14 0 -52 36 -52 49 0
13 14 7 43 -17z m262 8 c18 -19 17 -20 -2 -20 -11 0 -28 9 -38 20 -18 19 -17
20 2 20 11 0 28 -9 38 -20z m1228 -10 c-3 -11 -11 -25 -19 -31 -11 -9 -14 -6
-14 18 0 34 7 44 25 37 7 -3 11 -14 8 -24z m1437 -33 c0 -24 -43 -91 -88 -133
-259 -248 -763 -264 -1299 -42 -40 16 -73 33 -73 37 0 8 31 54 42 62 5 3 46
-7 90 -23 75 -26 199 -62 259 -73 352 -69 634 -49 849 60 61 31 161 113 179
149 l15 27 13 -23 c7 -13 12 -31 13 -41z m-1638 -8 c-3 -41 -8 -46 -30 -33
-18 12 -27 55 -18 81 6 14 9 14 29 0 17 -11 21 -23 19 -48z m-1173 27 c18 -19
19 -25 8 -29 -18 -7 -57 19 -57 39 0 21 24 17 49 -10z m251 -20 c0 -12 -43 18
-48 34 -3 8 5 6 21 -6 15 -10 27 -23 27 -28z m589 -18 c-11 -41 -12 -42 -39
-13 -22 23 -22 25 -6 50 17 25 19 26 36 10 14 -13 16 -23 9 -47z m-719 17 c19
-23 4 -30 -25 -11 -30 20 -36 53 -7 37 10 -5 25 -17 32 -26z m871 25 c24 -13
26 -68 3 -77 -26 -10 -45 19 -38 55 7 36 8 36 35 22z m-1141 -72 c0 -4 -24
-45 -53 -90 -137 -214 -218 -415 -243 -603 -3 -27 -8 -53 -10 -56 -6 -10 -94
-30 -104 -24 -5 3 -7 13 -6 23 2 9 7 49 11 87 4 39 19 106 33 150 14 44 27 85
28 90 12 57 136 275 230 405 l57 80 29 -27 c15 -15 28 -30 28 -35z m884 43
c14 -15 15 -23 5 -45 -15 -31 -20 -32 -44 -6 -15 17 -16 24 -7 45 14 30 23 31
46 6z m500 4 c12 -12 13 -22 4 -46 -13 -38 -42 -36 -46 4 -6 53 12 71 42 42z
m-1264 -30 c19 -23 4 -30 -25 -11 -30 20 -36 53 -7 37 10 -5 25 -17 32 -26z
m242 18 c27 -24 22 -36 -7 -17 -14 9 -25 20 -25 25 0 14 11 11 32 -8z m701
-25 c5 -17 -12 -68 -24 -68 -5 0 -16 11 -24 24 -22 33 -5 82 24 67 11 -6 21
-16 24 -23z m170 -8 c2 -9 -1 -29 -7 -44 l-11 -27 -23 21 c-13 13 -21 29 -18
37 3 8 6 23 6 34 0 16 3 17 24 8 13 -6 26 -19 29 -29z m-1005 14 c19 -13 31
-44 17 -44 -12 0 -54 32 -59 46 -7 19 14 18 42 -2z m1222 -3 c0 -4 -7 -17 -16
-29 -16 -24 -36 -21 -29 3 3 8 7 22 10 30 4 14 35 11 35 -4z m-994 -12 c19
-22 19 -22 -3 -10 -13 6 -23 16 -23 21 0 15 5 12 26 -11z m-111 -9 c27 -30 11
-35 -21 -6 -21 18 -24 25 -13 26 9 0 24 -9 34 -20z m2634 -59 c-51 -157 -259
-303 -479 -336 -25 -4 -54 -9 -65 -11 -27 -5 -245 -6 -270 -1 -11 3 -42 8 -70
11 -90 13 -109 17 -206 41 -126 32 -363 122 -426 163 -21 13 -22 16 -8 42 8
16 19 32 25 35 5 3 49 -9 97 -28 426 -169 830 -196 1116 -77 41 17 89 42 108
56 54 39 140 126 156 159 l16 30 9 -24 c5 -15 4 -37 -3 -60z m-2878 33 c12
-16 10 -16 -18 1 -18 11 -33 23 -33 28 0 11 34 -8 51 -29z m853 15 c11 -16 12
-28 4 -50 -8 -25 -12 -27 -29 -16 -23 15 -33 40 -24 67 8 26 30 26 49 -1z
m546 17 c0 -2 -8 -10 -17 -17 -16 -13 -17 -12 -4 4 13 16 21 21 21 13z m-1293
-34 c31 -19 19 -33 -17 -20 -34 11 -44 23 -35 38 6 10 10 9 52 -18z m229 7
c19 -22 19 -22 -3 -8 -13 8 -23 17 -23 21 0 12 6 9 26 -13z m347 1 c-3 -12 -8
-19 -11 -16 -5 6 5 36 12 36 2 0 2 -9 -1 -20z m352 -20 c3 -11 3 -29 0 -40
-14 -44 -70 -7 -59 38 4 15 9 30 11 35 7 12 41 -11 48 -33z m155 30 c15 -8 18
-17 13 -43 -3 -17 -9 -36 -13 -40 -11 -12 -50 32 -44 49 15 51 14 50 44 34z
m-975 -24 c17 -13 27 -28 22 -32 -8 -9 -59 26 -65 44 -6 19 10 14 43 -12z
m527 7 c20 -18 23 -45 7 -74 -10 -20 -11 -19 -30 5 -20 25 -23 43 -13 70 8 20
13 20 36 -1z m-780 -10 c24 -22 23 -36 -7 -84 -77 -121 -163 -328 -200 -479
-10 -41 -22 -79 -27 -84 -11 -13 -101 -47 -107 -40 -8 7 26 166 51 238 28 83
116 263 178 366 64 106 76 115 112 83z m355 -13 c17 -13 20 -20 11 -20 -8 0
-23 9 -33 20 -10 11 -15 20 -11 20 4 0 19 -9 33 -20z m947 -14 c-3 -7 -16 -18
-29 -24 -23 -10 -23 -10 -14 21 5 18 9 33 9 35 0 1 9 -2 20 -8 10 -6 17 -16
14 -24z m-1193 -3 c26 -16 38 -33 23 -33 -12 0 -64 34 -64 42 0 12 9 10 41 -9z
m853 -2 c12 -13 15 -27 10 -45 -9 -36 -17 -39 -42 -15 -24 22 -25 24 -16 57 8
27 25 28 48 3z m186 -41 c0 -38 -19 -54 -42 -33 -20 18 -23 45 -7 74 10 20 11
20 30 3 10 -9 19 -29 19 -44z m-913 25 c26 -22 26 -24 7 -25 -18 0 -64 33 -64
45 0 13 32 2 57 -20z m463 20 c0 -7 -42 -129 -46 -134 -6 -7 -54 41 -54 53 0
15 72 86 87 86 7 0 13 -2 13 -5z m-359 -25 c13 -10 21 -19 17 -20 -14 0 -58
23 -58 32 0 14 16 9 41 -12z m520 -13 c12 -17 14 -30 6 -57 l-9 -35 -28 32
c-26 29 -28 35 -18 61 13 33 25 33 49 -1z m481 11 c-7 -7 -12 -8 -12 -2 0 14
12 26 19 19 2 -3 -1 -11 -7 -17z m-1251 -17 l23 -18 -61 -134 c-34 -74 -77
-184 -98 -244 l-36 -111 -60 -33 c-32 -18 -59 -28 -59 -23 0 5 9 43 20 85 45
177 197 497 235 497 7 0 23 -8 36 -19z m359 -7 c0 -2 -9 0 -20 6 -11 6 -20 13
-20 16 0 2 9 0 20 -6 11 -6 20 -13 20 -16z m2495 -4 c-22 -128 -129 -258 -271
-332 -99 -52 -151 -69 -274 -89 -61 -10 -231 -13 -275 -5 -11 2 -47 7 -80 10
-86 10 -255 53 -361 91 -163 59 -364 161 -364 184 0 5 11 20 25 34 l26 25 47
-23 c26 -12 67 -32 92 -43 84 -38 284 -101 405 -128 109 -25 139 -27 320 -27
173 0 211 3 280 21 171 47 320 145 387 258 37 61 51 69 43 24z m-2195 0 c11
-11 20 -26 20 -33 0 -18 -31 -107 -36 -107 -3 0 -18 7 -34 15 l-29 15 15 48
c9 26 18 55 21 65 7 22 18 22 43 -3z m302 -14 c8 -12 1 -44 -15 -64 -14 -17
-47 13 -47 44 0 43 10 55 33 42 12 -6 25 -16 29 -22z m156 13 c3 -17 -23 -33
-38 -24 -4 3 -6 14 -3 25 6 24 36 23 41 -1z m-988 -9 c23 -18 23 -20 5 -20
-11 0 -31 9 -45 20 -23 18 -23 20 -5 20 11 0 31 -9 45 -20z m119 -6 c22 -21
10 -24 -31 -7 -21 8 -35 19 -32 24 7 12 44 2 63 -17z m961 17 c0 -6 -4 -13
-10 -16 -5 -3 -10 1 -10 9 0 9 5 16 10 16 6 0 10 -4 10 -9z m-874 -16 c10 -8
14 -15 8 -15 -5 0 -19 7 -30 15 -10 8 -14 15 -8 15 5 0 19 -7 30 -15z m924 -4
c0 -5 -7 -11 -15 -15 -15 -5 -20 5 -8 17 9 10 23 9 23 -2z m-1146 -32 c4 -4
-14 -61 -42 -126 -27 -65 -58 -142 -67 -171 -13 -41 -26 -60 -57 -82 -39 -29
-76 -45 -83 -38 -12 11 118 339 165 415 18 31 21 32 47 21 16 -6 32 -15 37
-19z m730 12 c24 -27 18 -75 -11 -79 -28 -4 -42 23 -36 66 6 36 22 41 47 13z
m-638 -6 c20 -8 33 -19 29 -25 -7 -11 -59 11 -70 30 -8 14 -1 13 41 -5z m117
-2 c18 -9 27 -18 21 -20 -16 -5 -64 15 -64 27 0 14 6 13 43 -7z m695 -10 c2
-8 -5 -13 -17 -13 -12 0 -21 6 -21 16 0 18 31 15 38 -3z m106 2 c-4 -8 -12
-15 -20 -15 -17 0 -18 17 -1 23 22 9 27 7 21 -8z m-378 -33 c16 -25 16 -26 -6
-44 -22 -18 -51 -24 -62 -12 -4 3 0 25 9 49 16 48 31 50 59 7z m2110 -31 c-53
-208 -214 -356 -461 -423 -67 -18 -107 -22 -250 -22 -103 -1 -192 4 -226 12
-30 7 -66 15 -80 17 -13 3 -55 14 -94 25 -38 11 -77 22 -85 24 -109 28 -500
220 -500 245 0 4 12 19 28 34 l27 26 95 -45 c226 -109 381 -160 630 -209 73
-15 353 -14 423 1 119 25 228 68 302 120 73 51 162 160 186 226 19 56 23 38 5
-31z m-1666 50 c0 -6 -10 -17 -22 -26 -26 -17 -37 -3 -18 20 14 17 40 20 40 6z
m-987 -26 c17 -12 16 -18 -22 -111 -36 -92 -42 -101 -92 -136 -84 -58 -83 -60
-17 108 64 164 78 179 131 139z m102 9 c20 -8 35 -18 32 -21 -8 -8 -77 17 -77
28 0 12 1 12 45 -7z m605 -15 c0 -5 -7 -9 -15 -9 -15 0 -20 12 -9 23 8 8 24
-1 24 -14z m120 1 c-8 -5 -22 -10 -30 -10 -13 0 -13 1 0 10 8 5 22 10 30 10
13 0 13 -1 0 -10z m200 6 c0 -2 -8 -10 -17 -17 -16 -13 -17 -12 -4 4 13 16 21
21 21 13z m-934 -32 c36 -9 29 -27 -32 -83 -82 -76 -90 -70 -47 34 19 46 31
64 41 60 8 -3 25 -8 38 -11z m795 -4 c-24 -21 -41 -26 -41 -12 0 15 24 32 45
32 19 -1 19 -1 -4 -20z m-61 -10 c0 -5 -4 -10 -9 -10 -6 0 -13 5 -16 10 -3 6
1 10 9 10 9 0 16 -4 16 -10z m-40 -20 c0 -5 -7 -7 -15 -4 -8 4 -12 10 -9 15 6
11 24 2 24 -11z m170 10 c0 -5 -9 -14 -20 -20 -22 -12 -23 -10 -14 14 7 17 34
22 34 6z m-220 -9 c3 -2 -4 -6 -15 -10 -24 -10 -62 -2 -45 9 10 6 45 7 60 1z
m160 -16 c0 -8 -6 -15 -14 -15 -20 0 -29 17 -14 23 22 9 28 7 28 -8z m-82 -17
c-7 -19 -34 -32 -54 -24 -19 7 -19 8 0 22 24 17 59 19 54 2z m-143 -8 c3 -5 1
-10 -4 -10 -6 0 -11 5 -11 10 0 6 2 10 4 10 3 0 8 -4 11 -10z m265 -15 c-7 -9
-15 -13 -17 -11 -7 7 7 26 19 26 6 0 6 -6 -2 -15z m-319 -13 c-7 -2 -18 1 -23
6 -8 8 -4 9 13 5 13 -4 18 -8 10 -11z m247 -28 c-8 -9 -23 -14 -32 -12 -15 3
-15 6 5 26 15 17 24 21 32 13 8 -8 7 -16 -5 -27z m-158 11 c10 -12 9 -15 -7
-15 -10 0 -28 7 -39 15 -18 14 -18 14 7 15 15 0 32 -7 39 -15z m91 5 c4 0 6
-7 3 -15 -5 -11 -10 -12 -25 -2 -23 14 -25 32 -3 23 9 -3 20 -6 25 -6z m1810
-103 c-30 -62 -58 -102 -113 -158 -146 -147 -337 -212 -603 -204 -147 4 -160
6 -305 42 -195 47 -427 150 -622 275 -43 28 -78 51 -78 53 0 1 13 18 28 38
l29 36 37 -25 c56 -39 306 -161 395 -194 86 -31 242 -75 306 -85 87 -14 115
-16 240 -19 247 -5 417 42 558 154 56 45 120 120 144 170 13 26 18 30 21 17 2
-9 -15 -55 -37 -100z m-2005 88 c10 -8 14 -15 8 -15 -5 0 -19 7 -30 15 -10 8
-14 15 -8 15 5 0 19 -7 30 -15z m-105 -70 l10 -20 -16 20 c-9 11 -21 29 -26
40 l-10 20 16 -20 c9 -11 21 -29 26 -40z m89 35 c14 -10 22 -21 19 -25 -4 -3
-20 5 -35 19 -34 30 -21 35 16 6z m117 -7 c3 -8 3 -16 0 -19 -8 -8 -68 26 -63
35 8 13 57 0 63 -16z m-319 -24 c-3 -8 -7 -3 -11 10 -4 17 -3 21 5 13 5 -5 8
-16 6 -23z m92 -31 c22 -41 25 -52 10 -43 -9 6 -50 91 -50 104 0 8 17 -17 40
-61z m308 33 c-4 -19 -36 -27 -50 -13 -6 6 -8 17 -5 25 8 21 59 10 55 -12z
m72 19 c0 -5 -2 -10 -4 -10 -3 0 -8 5 -11 10 -3 6 -1 10 4 10 6 0 11 -4 11
-10z m-273 -42 c5 -7 13 -22 17 -33 5 -14 -3 -10 -28 14 -20 19 -36 39 -36 43
0 11 33 -6 47 -24z m101 0 c15 -13 16 -38 0 -38 -14 0 -58 40 -58 52 0 11 39
1 58 -14z m142 12 c0 -5 -4 -10 -10 -10 -5 0 -10 5 -10 10 0 6 5 10 10 10 6 0
10 -4 10 -10z m-595 -92 c-18 -90 -60 -234 -75 -258 -14 -21 -12 -1 4 54 8 25
14 48 14 49 0 1 11 40 25 87 14 47 29 102 33 123 3 21 8 36 11 33 3 -2 -3 -42
-12 -88z m102 -95 c-2 -161 -5 -193 -21 -222 -26 -48 -36 -23 -21 52 15 70 24
178 25 285 0 39 4 72 10 72 6 0 8 -72 7 -187z m140 58 c9 -49 10 -71 3 -71 -7
0 -34 95 -45 155 -4 25 -2 23 16 -14 11 -24 23 -55 26 -70z m298 89 c6 -10
-22 -40 -36 -40 -13 0 -22 27 -16 44 6 15 43 11 52 -4z m-185 -76 c0 -14 -4
-23 -10 -19 -13 8 -50 80 -50 97 1 25 60 -52 60 -78z m230 71 c-7 -8 -16 -12
-21 -9 -13 8 -1 24 18 24 13 0 13 -3 3 -15z m-570 -164 c-27 -134 -69 -246
-86 -229 -3 4 6 42 21 85 21 62 71 235 74 258 1 3 2 15 3 28 1 14 3 11 5 -9 2
-17 -5 -77 -17 -133z m413 139 c17 -14 23 -26 20 -40 -3 -11 -8 -20 -11 -20
-14 0 -52 45 -52 62 0 23 11 23 43 -2z m-478 -86 c-9 -31 -18 -54 -21 -51 -3
2 3 33 13 67 9 35 19 58 21 52 2 -7 -4 -37 -13 -68z m111 -26 c-3 -51 -10
-106 -16 -123 -6 -21 -7 -5 -3 55 3 47 7 94 8 105 2 11 4 28 4 38 1 9 4 17 7
17 4 0 4 -42 0 -92z m270 13 c15 -33 10 -102 -6 -84 -11 12 -50 130 -50 151 0
14 4 12 21 -8 11 -14 27 -40 35 -59z m-482 -35 c-26 -53 -49 -94 -52 -91 -3 3
16 48 44 99 27 52 50 93 52 91 2 -1 -18 -46 -44 -99z m666 96 c0 -5 -9 -17
-19 -26 -21 -19 -37 -7 -27 19 6 16 46 21 46 7z m-740 -32 c-12 -16 -24 -30
-26 -30 -3 0 4 14 16 30 12 17 24 30 26 30 3 0 -4 -13 -16 -30z m60 -20 c-11
-22 -23 -40 -25 -40 -3 0 4 18 15 40 11 22 23 40 25 40 3 0 -4 -18 -15 -40z
m-120 -10 c-17 -22 -34 -40 -37 -40 -6 0 10 22 41 58 32 37 30 25 -4 -18z
m700 22 c18 -15 20 -21 10 -46 -8 -23 -13 -26 -24 -17 -17 14 -37 67 -29 75
10 10 20 7 43 -12z m-537 -84 c-38 -85 -74 -150 -81 -144 -3 3 19 54 49 114
57 115 79 135 32 30z m-283 69 c0 -2 -10 -12 -22 -23 l-23 -19 19 23 c18 21
26 27 26 19z m-130 -27 c-14 -11 -29 -20 -35 -20 -5 0 4 9 20 20 38 25 48 25
15 0z m60 7 c0 -2 -19 -17 -42 -34 -47 -32 -83 -49 -73 -33 3 6 10 10 16 10 5
0 28 14 51 30 40 29 48 34 48 27z m119 -14 c-31 -40 -65 -75 -89 -90 -14 -8 2
12 35 46 58 60 81 78 54 44z m65 -30 c-21 -27 -40 -50 -41 -52 -2 -2 -3 0 -3
6 0 10 68 93 76 93 3 0 -12 -21 -32 -47z m25 -28 c-49 -71 -69 -95 -69 -79 0
13 107 154 117 154 1 0 -20 -34 -48 -75z m-129 62 c0 -2 -10 -12 -22 -23 l-23
-19 19 23 c18 21 26 27 26 19z m-260 -31 c0 -2 -7 -7 -16 -10 -8 -3 -12 -2 -9
4 6 10 25 14 25 6z m35 -16 c-4 -6 -30 -22 -58 -36 -61 -31 -50 -14 14 21 51
28 52 28 44 15z m135 6 c0 -2 -25 -20 -55 -40 -67 -44 -72 -39 -7 9 43 31 62
41 62 31z m130 -11 c0 -10 -74 -87 -94 -97 -12 -6 4 15 34 46 54 55 60 61 60
51z m119 -27 c-7 -13 -26 -43 -43 -68 -17 -24 -34 -49 -38 -54 -4 -6 -10 -7
-14 -4 -3 4 17 39 46 78 53 71 70 88 49 48z m-515 2 c-12 -12 -114 -52 -114
-45 0 6 59 36 90 46 35 10 35 10 24 -1z m240 -21 c-26 -29 -74 -62 -80 -56 -5
5 83 77 94 77 3 0 -3 -9 -14 -21z m-139 -10 c-48 -32 -85 -50 -85 -41 0 9 89
61 105 62 6 0 -3 -9 -20 -21z m540 -11 c-11 -34 -56 -117 -72 -129 -24 -20
-15 10 25 82 36 68 60 91 47 47z m-295 -43 c-24 -25 -49 -45 -54 -45 -6 0 12
22 39 50 27 27 51 47 54 45 3 -3 -15 -26 -39 -50z m-398 18 c-29 -14 -56 -23
-59 -20 -8 8 69 46 92 46 12 -1 -2 -11 -33 -26z m-117 -4 c-40 -18 -85 -26
-71 -11 11 11 69 30 91 30 13 0 6 -6 -20 -19z m290 11 c-8 -13 -86 -53 -92
-47 -5 5 77 57 90 57 5 0 5 -5 2 -10z m93 -35 c-29 -24 -55 -39 -57 -33 -2 6
4 15 13 20 9 5 28 20 44 33 15 13 33 25 40 25 8 0 -10 -20 -40 -45z m277 -25
c-31 -44 -63 -76 -70 -68 -3 3 16 33 42 67 51 66 74 67 28 1z m273 -25 c-8
-28 -43 -73 -51 -64 -3 2 7 35 22 74 21 59 26 65 31 45 4 -14 3 -38 -2 -55z
m-768 60 c0 -6 -48 -30 -79 -40 -17 -5 -21 -4 -16 5 12 20 95 51 95 35z m355
-55 c-27 -28 -54 -50 -59 -50 -6 0 14 25 44 55 29 30 56 52 59 50 3 -3 -17
-28 -44 -55z m-621 40 c-14 -14 -112 -26 -99 -12 10 11 41 18 85 21 16 1 21
-2 14 -9z m131 0 c-7 -12 -85 -33 -93 -26 -7 7 57 35 81 36 10 0 15 -4 12 -10z
m271 1 c-9 -14 -97 -63 -103 -57 -3 3 16 19 43 35 48 31 70 39 60 22z m123 -8
c-15 -24 -62 -61 -85 -69 -11 -3 -1 10 21 30 22 19 45 40 50 45 17 17 26 12
14 -6z m-650 -12 c2 -1 2 -4 -2 -7 -11 -12 -87 -16 -87 -6 0 15 42 21 89 13z
m-339 -11 c12 -8 11 -10 -7 -10 -13 0 -23 5 -23 10 0 13 11 13 30 0z m220 -11
c0 -11 -41 -12 -67 -2 -15 6 -13 8 12 13 33 7 55 2 55 -11z m505 11 c-3 -5
-23 -17 -43 -26 -20 -10 -40 -19 -44 -21 -5 -2 -8 1 -8 7 0 6 19 19 43 30 49
21 61 24 52 10z m654 -23 c-31 -58 -69 -96 -69 -69 0 18 61 103 70 97 7 -4 6
-14 -1 -28z m-1273 16 c-11 -11 -45 -13 -51 -3 -4 6 7 10 26 10 18 0 29 -3 25
-7z m359 -3 c-7 -11 -74 -25 -82 -16 -3 3 4 9 16 14 32 12 73 13 66 2z m129 1
c7 -11 -47 -31 -78 -30 -15 0 -10 6 19 20 46 21 52 22 59 10z m666 1 c0 -15
-59 -92 -70 -92 -16 0 -12 8 23 55 31 42 47 55 47 37z m-390 -6 c0 -9 -80 -58
-90 -54 -13 4 58 58 77 58 7 0 13 -2 13 -4z m-520 -15 c0 -11 -25 -21 -56 -21
-30 0 -32 17 -1 23 40 8 57 7 57 -2z m632 -13 c-28 -30 -84 -63 -76 -46 6 16
73 68 87 68 6 0 1 -10 -11 -22z m138 3 c-12 -24 -61 -63 -68 -56 -7 6 58 75
70 75 5 0 4 -9 -2 -19z m-986 -12 c8 -9 6 -10 -7 -5 -10 3 -25 6 -33 6 -8 0
-14 4 -14 9 0 13 40 5 54 -10z m106 0 c0 -10 -41 -12 -65 -3 -25 10 0 21 35
16 17 -2 30 -8 30 -13z m485 3 c-27 -25 -78 -46 -73 -31 4 13 66 49 83 49 5 0
1 -8 -10 -18z m-245 -1 c0 -11 -78 -26 -87 -17 -8 7 36 25 65 25 12 1 22 -3
22 -8z m109 -17 c-25 -14 -77 -19 -65 -6 12 12 70 30 80 24 5 -3 -2 -11 -15
-18z m792 -37 c-29 -30 -34 -17 -8 23 18 28 22 31 25 16 2 -10 -5 -28 -17 -39z
m-1011 33 c3 -1 -8 -6 -23 -10 -34 -10 -73 -1 -42 10 16 6 49 6 65 0z m477
-15 c-15 -14 -38 -25 -50 -25 -18 0 -17 3 13 25 47 32 74 32 37 0z m163 10 c0
-9 -55 -55 -67 -55 -19 0 -16 8 15 35 24 22 52 33 52 20z m130 -8 c0 -16 -59
-61 -68 -52 -4 4 9 20 28 36 39 33 40 34 40 16z m119 -23 c-16 -20 -49 -37
-49 -26 0 17 53 67 58 54 2 -7 -2 -20 -9 -28z m-1008 17 c-8 -5 -20 -7 -28 -4
-21 8 -15 13 15 13 20 0 23 -3 13 -9z m239 -1 c0 -5 -3 -10 -7 -11 -5 0 -21
-3 -37 -5 -26 -5 -28 -3 -16 10 14 18 60 22 60 6z m124 -9 c-14 -13 -60 -22
-68 -13 -4 4 9 12 31 18 39 12 53 10 37 -5z m136 14 c0 -10 -62 -36 -78 -32
-12 3 -7 9 18 20 35 16 60 21 60 12z m-360 -27 c0 -4 -17 -8 -37 -7 -30 0 -34
2 -18 9 24 10 55 9 55 -2z m489 -4 c-14 -18 -59 -37 -67 -30 -5 5 58 46 72 46
5 0 2 -7 -5 -16z m118 -30 c-41 -35 -58 -29 -19 7 19 17 37 27 40 24 4 -4 -6
-18 -21 -31z m-492 16 c-3 -5 -18 -10 -33 -10 -21 0 -24 2 -12 10 20 13 53 13
45 0z m125 -10 c-8 -6 -28 -9 -45 -9 -29 1 -28 2 10 14 42 13 60 10 35 -5z
m120 6 c-8 -8 -26 -17 -40 -21 l-25 -6 25 20 c30 24 64 30 40 7z m391 -18
c-34 -26 -48 -22 -21 7 12 13 27 22 33 18 6 -4 1 -14 -12 -25z m139 12 c-24
-15 -37 -11 -16 5 11 8 22 12 25 9 3 -3 -1 -9 -9 -14z m-877 -7 c-7 -2 -21 -2
-30 0 -10 3 -4 5 12 5 17 0 24 -2 18 -5z m497 -3 c0 -11 -33 -30 -52 -30 -7 0
-2 9 12 20 28 22 40 25 40 10z m-370 -10 c0 -5 -10 -10 -22 -10 -19 0 -20 2
-8 10 19 13 30 13 30 0z m257 -6 c-2 -3 -18 -9 -36 -14 -35 -10 -33 6 3 20 20
7 43 3 33 -6z m249 -2 c-3 -5 -16 -12 -28 -15 l-23 -6 24 20 c23 19 39 20 27
1z m-381 -2 c-3 -5 -16 -10 -28 -10 -18 0 -19 2 -7 10 20 13 43 13 35 0z m525
6 c0 -2 -7 -7 -16 -10 -8 -3 -12 -2 -9 4 6 10 25 14 25 6z m-265 -25 c-3 -6
-14 -11 -23 -11 -13 0 -13 2 4 14 21 15 30 14 19 -3z m-105 -5 c0 -2 -9 -6
-20 -9 -11 -3 -18 -1 -14 4 5 9 34 13 34 5z"/>
</g>
</svg>
